<?xml version="1.0" encoding="utf-8"?>
<!-- Generator: Adobe Illustrator 15.1.0, SVG Export Plug-In . SVG Version: 6.00 Build 0)  -->
<!DOCTYPE svg PUBLIC "-//W3C//DTD SVG 1.1//EN" "http://www.w3.org/Graphics/SVG/1.1/DTD/svg11.dtd">
<svg version="1.1" id="Слой_1" xmlns="http://www.w3.org/2000/svg" xmlns:xlink="http://www.w3.org/1999/xlink" x="0px" y="0px"
	 width="100px" height="100px" viewBox="0 0 100 100" enable-background="new 0 0 100 100" xml:space="preserve">
<g>
	<polygon points="54.703,5.333 47.889,5.333 47.889,49.778 36.704,49.778 36.704,56.519 47.889,56.519 47.889,67.777 54.703,67.777 
		54.703,56.519 65.889,56.519 65.889,49.778 54.703,49.778 	"/>
	<path d="M46.259,11.111c-7.704-0.815-14.519-4.519-19.481-10c-4.963,5.481-8,12.814-8,20.741c0,8,3.037,15.333,8,20.814
		c4.963-5.481,11.778-9.111,19.481-10V11.111z"/>
	<path d="M75.814,1.111c-4.963,5.481-11.777,9.185-19.48,10v21.555c7.703,0.889,14.518,4.519,19.48,10
		c4.963-5.481,8-12.814,8-20.814C83.814,13.926,80.777,6.593,75.814,1.111z"/>
</g>
</svg>
