<?xml version="1.0" encoding="utf-8"?>
<!-- Generator: Adobe Illustrator 15.1.0, SVG Export Plug-In  -->
<!DOCTYPE svg PUBLIC "-//W3C//DTD SVG 1.1//EN" "http://www.w3.org/Graphics/SVG/1.1/DTD/svg11.dtd" [
	<!ENTITY ns_flows "http://ns.adobe.com/Flows/1.0/">
]>
<svg version="1.1"
	 xmlns="http://www.w3.org/2000/svg" xmlns:xlink="http://www.w3.org/1999/xlink" xmlns:a="http://ns.adobe.com/AdobeSVGViewerExtensions/3.0/"
	 x="0px" y="0px" width="800px" height="600px" viewBox="-217.729 -59.158 800 600"
	 overflow="visible" enable-background="new -217.729 -59.158 800 600" xml:space="preserve">
<defs>
</defs>
<path d="M340.503,157.21c-13.287,0-24.029,10.761-24.029,24.033v36.043c0,6.648-5.371,12.019-12.02,12.019
	c-6.638,0-12.023-5.371-12.023-12.019v-60.062c0-13.301-10.752-24.062-24.043-24.062c-13.258,0-24.029,10.762-24.029,24.062v60.062
	c0,6.648-5.391,12.014-12.02,12.014c-6.638,0-12.028-5.371-12.028-12.014V24.034C220.311,10.748,209.587,0,196.277,0
	c-13.263,0-24.024,10.743-24.024,24.034v193.258c0,6.648-5.395,12.019-12.019,12.019c-6.634,0-12-5.371-12-12.019v-60.317
	c0-13.267-10.762-24.029-24.039-24.029c-13.282,0-24.043,10.762-24.043,24.029v122.918c0,14.41-11.674,26.064-26.055,26.064
	c-14.371,0-26.05-11.654-26.05-26.064v-48.676c0-13.267-10.747-24.015-24.019-24.015C10.743,207.202,0,217.949,0,231.216v59.424
	l0.264,15.331c4.968,96.863,85.07,173.87,183.164,173.87c91.43,0,167.208-66.927,181.099-154.474v-4.281v-15.115V181.243
	C364.541,167.971,353.77,157.21,340.503,157.21z"/>
</svg>
