<?xml version="1.0" encoding="utf-8"?>
<!-- Generator: Adobe Illustrator 15.1.0, SVG Export Plug-In . SVG Version: 6.00 Build 0)  -->
<!DOCTYPE svg PUBLIC "-//W3C//DTD SVG 1.1//EN" "http://www.w3.org/Graphics/SVG/1.1/DTD/svg11.dtd">
<svg version="1.1" id="Calque_1" xmlns="http://www.w3.org/2000/svg" xmlns:xlink="http://www.w3.org/1999/xlink" x="0px" y="0px"
	 width="800px" height="600px" viewBox="0 0 800 600" enable-background="new 0 0 800 600" xml:space="preserve">
<g>
	<path d="M361.461,229.439c-0.533-6.204-3.198-11.372-7.996-14.991c1.067-19.126-14.392-35.667-34.113-36.186
		c-19.721-1.032-36.778,13.958-37.845,33.083c-1.066,19.125,14.39,35.668,34.113,36.702c1.067,0,1.6,0,2.131,0
		c0.535,0,0.535,0,1.067,0l1.599,22.745l-23.454-19.643c-5.863-4.653-13.859-6.204-21.32-4.136
		c-7.464,2.584-12.794,8.271-14.392,15.507l-20.256,86.844c-1.065,4.652-0.532,9.305,1.6,13.438l23.454,50.66l-56.501,3.618
		c-11.727,0.517-20.79,10.339-19.722,21.711c0.533,4.651,2.665,9.303,5.863,12.924c-1.065,0.516-1.599,1.548-2.133,2.066
		c-3.73,4.653-4.797,10.338-4.264,16.024c1.601,10.338,10.661,18.609,21.855,18.609l0,0c1.066,0,2.131,0,3.198,0l97.012-13.441
		c6.929-1.032,12.792-5.168,15.989-10.854c3.199-5.685,3.732-12.923,1.067-19.126l-43.175-93.562l10.659-45.489l35.713,29.981
		c6.398,5.686,16.525,6.72,23.987,3.101c7.995-3.618,12.793-11.889,12.26-20.675L361.461,229.439z M317.752,232.54l0.535,8.789
		c-0.535,0-1.066,0-2.132,0c-15.99-0.518-28.25-13.958-27.718-29.465c0.532-15.507,14.393-27.397,30.383-26.88
		c14.925,0.517,26.119,11.89,27.717,25.846c-2.132-0.517-4.263-1.034-6.929-1.034c-0.534,0-1.065,0-1.599,0
		C326.282,210.312,316.688,220.651,317.752,232.54z M195.157,438.274c-0.533-8.271,5.862-15.509,14.392-16.023l58.1-4.137
		l8.529,18.094l-68.229,9.302c-2.666,0.52-5.33,1.034-7.996,2.585C197.289,445.51,195.689,442.41,195.157,438.274z M351.867,333.34
		c-5.331,2.585-11.726,1.551-16.523-2.068l-44.242-37.218l-13.326,58.411l44.241,95.114c2.133,4.137,1.601,8.787-0.532,12.922
		c-2.132,4.137-6.397,6.72-11.193,7.238l-97.012,12.924c-0.533,0-1.598,0-2.131,0v3.616v-3.616c-7.462,0-13.859-5.17-14.926-12.406
		c-0.533-3.619,0.532-7.756,2.665-10.856c2.667-3.102,5.865-5.169,10.129-5.685l77.29-10.341l-37.846-82.189
		c-1.066-2.584-1.599-6.203-1.066-9.305l20.255-86.843c1.066-5.168,4.797-8.786,10.127-10.855c1.599-0.516,3.199-0.516,4.799-0.516
		c3.731,0,6.928,1.034,9.595,3.619l36.245,30.499l-3.73-54.793c-0.534-7.754,5.862-14.992,13.858-15.509
		c8.527-0.517,15.457,5.688,15.991,13.44l5.861,90.461C360.929,325.069,357.73,330.755,351.867,333.34z"/>
	<g>
		<g>
			<path d="M583.204,503.924c-11.728,0-21.855-8.271-23.455-19.645l-17.058-104.934l-8.527,95.112
				c-1.066,12.407-12.793,22.229-26.117,21.195c-13.327-1.034-22.923-12.408-21.855-25.33l11.727-136.983l2.663-50.659l-2.663,3.103
				c-1.599,2.066-3.198,3.617-5.331,5.169l-49.57,34.116c-3.732,3.101-8.529,4.652-13.859,4.652c-7.996,0-14.925-3.619-19.723-9.821
				c-3.731-5.171-5.331-11.374-4.265-17.576c1.065-6.202,4.265-11.371,9.595-14.99l46.374-32.049l47.439-62.548
				c0.534-1.033,1.6-1.55,2.132-2.584l0.532-0.517h0.533c0.535-0.516,1.066-1.034,1.599-1.551c0.534,0,0.534-0.516,1.068-0.516
				h0.532c0.534-0.517,1.065-0.517,1.6-1.034c0.533,0,1.067-0.517,1.599-0.517h0.534c0.532,0,0.532-0.518,1.065-0.518l29.849-10.339
				c0.534,0,1.068-0.516,2.132-0.516h0.534c0.531,0,0.531,0,1.066,0l47.439-7.754l-5.332-67.199
				c-0.531-6.204,1.6-12.407,5.865-17.059c4.263-4.65,10.128-7.753,16.525-8.271c0.531,0,1.065,0,2.131,0
				c12.258,0,22.92,9.304,23.985,21.194l7.464,88.394c1.067,11.888-7.464,22.744-19.723,24.812l-49.572,8.27v105.969l25.052,155.075
				c2.134,12.926-6.93,24.812-19.721,26.364C585.335,503.924,584.268,503.924,583.204,503.924z M540.026,322.483l26.119,160.762
				c1.599,8.788,10.126,14.993,19.189,13.957c9.062-1.549,15.458-9.822,14.393-18.607l-25.053-155.594V210.312l54.899-9.304
				c8.531-1.552,14.928-8.789,13.859-17.576l-6.929-87.876c-0.532-8.788-9.061-16.024-18.122-14.992
				c-4.797,0.517-8.527,2.586-11.728,5.688c-3.196,3.101-4.265,7.753-4.265,11.89l5.864,73.401l-54.901,9.305
				c-0.535,0-1.066,0.517-1.601,0.517l0,0l-29.315,9.822c0,0,0,0-0.535,0h-0.531c-0.532,0-1.065,0.517-1.065,0.517
				c-0.533,0-0.533,0.516-1.066,0.516v1.033c0,0-0.532,0-0.532,0.518c-0.534,0.517-1.065,0.517-1.065,1.034l-0.534,0.517
				c0,0,0,0-0.533,0c-0.534,0.516-1.065,1.034-1.6,2.068v0.516l-47.972,63.064l-47.44,32.567c-3.732,2.584-6.396,6.202-6.93,10.855
				c-0.533,4.134,0.533,8.786,3.197,12.406c3.199,4.135,8.529,6.719,13.859,6.719c3.732,0,6.929-1.034,10.127-3.102l49.571-34.116
				c1.601-1.036,2.667-2.068,3.733-3.619l15.991-21.193l-3.732,73.402l-11.727,136.983c-0.532,9.306,6.396,17.059,15.459,17.574
				c9.595,0.518,17.59-6.203,18.121-14.99L540.026,322.483z"/>
		</g>
		<g>
			<path d="M525.635,171.026c-21.853,0-39.977-17.576-39.977-38.769c0-21.192,18.124-38.769,39.977-38.769
				c21.856,0,39.977,17.577,39.977,38.769C566.146,153.45,548.023,171.026,525.635,171.026z M525.635,100.209
				c-18.122,0-33.048,14.473-33.048,32.048c0,17.576,14.926,32.049,33.048,32.049c18.124,0,33.049-14.474,33.049-32.049
				C558.684,114.683,544.29,100.209,525.635,100.209z"/>
		</g>
	</g>
	<path d="M489.923,36.111l-5.33,1.034l-7.462-20.676l9.594-2.069L489.923,36.111z M485.658,48.518l-1.6-7.237l7.996-1.552
		l1.599,7.237L485.658,48.518z"/>
	<path d="M581.071,70.228l-3.198,3.618c-0.534,0.517-1.066,1.552-1.066,2.068v0.518h-7.996v-1.034c0-2.068,0.533-3.619,2.133-5.17
		l3.196-3.618c0.535-1.034,1.066-2.068,1.066-2.584c0-1.552-1.066-2.586-2.664-2.586c-2.132,0-2.666,1.034-2.666,3.102h-7.994
		c0-6.203,4.797-9.821,10.66-9.821s10.662,3.102,10.662,9.821C583.738,66.609,582.669,68.16,581.071,70.228z M569.344,87.802v-7.237
		h7.995v7.237H569.344z"/>
	<path d="M427.025,94.522l-0.535,3.621h2.667v6.201h-3.199l-1.063,6.722h-7.464l1.065-6.722h-3.731l-1.065,6.722h-7.464l1.067-6.722
		h-2.665v-6.201h3.198l0.532-3.621h-2.665V88.32h3.198l1.066-6.203h7.995l-1.065,6.203h3.73l1.066-6.203h7.463l-1.066,6.203h2.665
		v6.202H427.025z M416.363,94.522l-0.533,3.621h3.732l0.532-3.621H416.363z"/>
	<path d="M455.276,71.261c-3.2,0-6.398-2.066-6.398-5.686v-4.136c0-4.135,3.198-5.687,6.398-5.687c3.196,0,6.395,2.068,6.395,5.687
		v4.136C461.671,69.71,458.473,71.261,455.276,71.261z M456.875,61.957c0-1.033-0.533-1.551-1.599-1.551
		c-1.067,0-1.6,0.519-1.6,1.551v3.619c0,1.034,0.532,1.551,1.6,1.551c1.065,0,1.599-0.517,1.599-1.551V61.957z M460.604,86.252
		h-5.328l14.925-29.981h5.329L460.604,86.252z M475.53,86.252c-3.198,0-6.396-2.068-6.396-5.688v-4.133
		c0-4.136,3.197-5.687,6.396-5.687c3.197,0,6.396,1.551,6.396,5.687v4.133C481.926,84.185,478.728,86.252,475.53,86.252z
		 M476.598,76.432c0-1.034-0.533-1.552-1.601-1.552c-1.065,0-1.6,0.518-1.6,1.552v3.617c0,1.033,0.534,1.551,1.6,1.551
		c1.067,0,1.601-0.518,1.601-1.551V76.432z"/>
	<path d="M535.229,60.405l-2.132-2.067c-1.598,1.034-3.197,2.585-6.931,2.585c-6.928,0-10.127-3.62-10.127-9.306
		c0-3.619,2.667-5.685,4.799-7.236c-1.066-1.035-2.666-3.102-2.666-6.204c0-4.136,3.198-7.237,9.061-7.237
		c5.33,0,8.528,3.101,8.528,7.237c0,2.067-1.065,3.617-3.198,5.168c0,0-1.598,1.035-2.13,1.551l3.73,4.135
		c1.065-1.034,1.065-2.585,1.598-4.135h6.396c-0.532,3.619-1.063,6.72-3.729,9.304l5.861,6.721h-9.061V60.405z M524.037,48.518
		c-1.6,1.033-1.6,1.55-1.6,3.101c0,2.068,1.6,3.102,3.729,3.102c1.601,0,2.135-0.517,3.2-1.033L524.037,48.518z M526.702,36.627
		c-1.602,0-2.133,0.518-2.133,1.551c0,1.033,1.065,2.067,1.598,2.585c0.535,0,1.066-0.518,1.066-0.518
		c0.534-0.517,1.068-1.034,1.068-1.55C528.302,37.661,527.768,36.627,526.702,36.627z"/>
	<g>
		<g>
			<polygon points="365.704,171.969 367.076,175.334 364.597,176.284 363.226,172.92 			"/>
		</g>
		<g>
			<path d="M377.453,171.026l-1.066-3.101l5.33-2.067l1.066,3.101L377.453,171.026z M392.912,164.823l-1.601-3.101l5.33-2.067
				l1.067,3.1L392.912,164.823z M408.368,159.137l-1.065-3.101l5.33-2.068l1.066,3.101L408.368,159.137z M423.828,152.934
				l-1.068-3.101l5.331-2.068l1.066,3.102L423.828,152.934z M439.284,147.248l-1.066-3.101l5.331-2.069l1.066,3.102L439.284,147.248
				z"/>
		</g>
		<g>
			<polygon points="455.86,137.214 457.238,140.576 454.761,141.532 453.385,138.168 			"/>
		</g>
	</g>
	<g>
		<g>
			<polygon points="464.229,155.36 466.677,158.091 464.665,159.786 462.217,157.055 			"/>
		</g>
		<g>
			<path d="M401.439,212.381l-2.132-2.585l4.265-3.619l2.131,2.586L401.439,212.381z M414.232,201.525l-2.133-2.584l4.264-3.619
				l2.133,2.584L414.232,201.525z M426.49,191.187l-2.131-2.585l4.264-3.619l2.133,2.585L426.49,191.187z M439.284,180.332
				l-2.132-2.584l4.265-3.619l2.132,2.583L439.284,180.332z M451.545,169.992l-2.133-2.584l4.265-3.618l2.133,2.585L451.545,169.992
				z"/>
		</g>
		<g>
			<polygon points="390.697,216.632 393.139,219.365 391.126,221.058 388.683,218.324 			"/>
		</g>
	</g>
	<g>
		<g>
			<polygon points="475.692,176.51 478.686,178.671 477.093,180.744 474.102,178.582 			"/>
		</g>
		<g>
			<path d="M418.496,256.835l-2.666-2.068l3.199-4.134l2.665,2.067L418.496,256.835z M428.091,244.429l-2.665-2.067l3.197-4.135
				l2.666,2.067L428.091,244.429z M437.686,231.506l-2.666-2.067l3.198-4.136l2.666,2.068L437.686,231.506z M447.812,219.1
				l-3.197-2.067l3.197-4.136l2.666,2.069L447.812,219.1z M457.406,206.177l-2.663-2.067l3.198-4.136l2.663,2.067L457.406,206.177z
				 M467.003,193.253l-2.666-2.066l3.199-4.136l2.665,2.068L467.003,193.253z"/>
		</g>
		<g>
			<polygon points="409.054,263.343 412.043,265.508 410.448,267.578 407.459,265.413 			"/>
		</g>
	</g>
</g>
</svg>
