<?xml version="1.0" encoding="utf-8"?>
<!-- Generator: Adobe Illustrator 15.1.0, SVG Export Plug-In  -->
<!DOCTYPE svg PUBLIC "-//W3C//DTD SVG 1.1//EN" "http://www.w3.org/Graphics/SVG/1.1/DTD/svg11.dtd" [
	<!ENTITY ns_flows "http://ns.adobe.com/Flows/1.0/">
]>
<svg version="1.1"
	 xmlns="http://www.w3.org/2000/svg" xmlns:xlink="http://www.w3.org/1999/xlink" xmlns:a="http://ns.adobe.com/AdobeSVGViewerExtensions/3.0/"
	 x="0px" y="0px" width="800px" height="600px" viewBox="-131.845 -31.267 800 600"
	 overflow="visible" enable-background="new -131.845 -31.267 800 600" xml:space="preserve">
<defs>
</defs>
<path d="M480.444,335.428c-12.066,0-22.52-2.988-32.907-9.387c-9.477-5.828-17.656-13.716-26.317-22.062
	c-0.631-0.613-1.262-1.214-1.893-1.839l117.752-33.598L424.72,236.469c14.019-6.905,27.151-13.68,37.122-23.645
	c5.893-5.875,10.167-12.334,13.078-19.739c3.173-8.096,4.649-17.108,4.494-27.556l-0.22-14.489l-9.453,10.983
	c-8.971,10.429-19.014,16.87-31.615,20.269c-11.466,3.096-23.585,3.304-36.414,3.53c-0.958,0.018-1.922,0.036-2.904,0.054
	l59.611-107.228l-104.556,58.129c5.155-15.716,9.966-30.58,9.805-45.414c-0.089-8.328-1.708-15.9-4.982-23.156
	c-3.56-7.936-8.971-15.287-16.561-22.478l-10.513-9.965l1.256,14.436c1.185,13.709-1.232,25.389-7.607,36.776
	c-5.804,10.358-14.114,19.174-22.925,28.502c-0.208,0.226-0.428,0.453-0.643,0.679L268.536,0l-32.354,113.354
	c-6.833-14.138-13.501-27.395-23.376-37.521c-5.78-5.923-12.132-10.263-19.425-13.251c-7.977-3.274-16.864-4.864-27.18-4.864
	c-0.25,0-0.5,0-0.757,0l-14.482,0.113l10.911,9.53c10.364,9.054,16.733,19.145,20.031,31.758
	c3.006,11.495,3.131,23.603,3.262,36.431c0.007,0.774,0.019,1.548,0.03,2.333L78.654,78.648l57.164,102.823
	c-15.066-5.238-29.395-9.965-43.776-9.965c-16.895,0-31.765,6.762-45.468,20.68l-10.167,10.322l14.447-0.982
	c1.744-0.119,3.477-0.173,5.161-0.173c12.227,0,22.781,3.024,33.204,9.524c9.513,5.917,17.687,13.93,26.33,22.4
	c0.595,0.583,1.196,1.167,1.797,1.756L0,268.549l113.222,32.299c-14.186,6.858-27.49,13.549-37.615,23.508
	c-5.941,5.828-10.269,12.245-13.233,19.639c-3.244,8.061-4.786,17.066-4.715,27.508l0.102,14.495l9.536-10.905
	c9.055-10.364,19.156-16.722,31.776-20.02c11.488-3,23.603-3.107,36.437-3.238c0.798,0,1.607-0.012,2.423-0.029l-59.277,106.62
	l104.959-58.35c-5.292,15.722-10.238,30.568-10.209,45.444c0.019,8.31,1.59,15.905,4.786,23.186
	c3.501,7.971,8.864,15.353,16.383,22.609l10.429,10.048l-1.131-14.436c-1.077-13.727,1.44-25.389,7.911-36.723
	c5.882-10.299,14.269-19.055,23.15-28.312c0.185-0.196,0.375-0.387,0.565-0.596l33.044,115.788l32.104-112.483
	c6.857,13.869,13.555,26.877,23.335,36.812c5.769,5.876,12.072,10.168,19.293,13.132c7.911,3.244,16.704,4.834,26.871,4.834
	c0,0,0,0,0.006,0c0.5,0,1.018-0.012,1.53-0.012l14.483-0.232l-10.989-9.441c-10.43-8.959-16.882-19.007-20.281-31.609
	c-3.102-11.471-3.327-23.573-3.565-36.396c-0.019-0.94-0.03-1.869-0.048-2.833l107.145,59.575l-56.938-102.436
	c14.894,5.048,29.05,9.572,43.229,9.572c8.316,0,15.906-1.548,23.192-4.727c7.959-3.482,15.37-8.811,22.633-16.316l10.084-10.406
	l-14.453,1.102C484.23,335.351,482.302,335.428,480.444,335.428z M386.17,343.798l-0.382,0.595
	c-10.649,16.437-24.972,30.747-41.401,41.396l-0.898,0.583l-0.815,0.506c-13.626,8.561-28.484,14.632-44.146,18.067l-0.095,0.012
	l-0.619,0.125c-19.121,4.083-39.384,4.096-58.511,0.012c-15.703-3.346-30.603-9.346-44.276-17.828l-1.137-0.709l-1.197-0.773
	c-16.43-10.65-30.746-24.96-41.396-41.396l-0.375-0.583l-0.369-0.577c-8.625-13.603-14.769-28.438-18.275-44.11l-0.148-0.655
	l-0.137-0.648c-2.042-9.561-3.072-19.418-3.072-29.27c0-9.864,1.03-19.716,3.072-29.27l0.143-0.673l0.167-0.744
	c3.512-15.674,9.673-30.508,18.311-44.093l0.321-0.506l0.369-0.56c10.655-16.43,24.966-30.752,41.396-41.402l0.56-0.363l0.536-0.345
	c13.591-8.632,28.419-14.781,44.087-18.293l0.714-0.161l0.685-0.143c19.127-4.084,39.413-4.084,58.534,0l0.5,0.107
	c15.644,3.393,30.472,9.423,44.08,17.924l0.887,0.554l1.113,0.726c16.43,10.65,30.752,24.966,41.402,41.402l0.619,0.964l0.523,0.833
	c8.53,13.614,14.584,28.442,18.007,44.092l0.149,0.69c2.042,9.561,3.077,19.412,3.077,29.27c0,9.852-1.035,19.704-3.077,29.27
	l-0.209,0.988l-0.202,0.887c-3.565,15.639-9.763,30.419-18.418,43.962L386.17,343.798z M417.457,291.252
	c0.769-5.084,1.274-10.203,1.519-15.334l25.972-7.584l-25.972-7.25c-0.25-5.102-0.756-10.197-1.519-15.239l79.554,22.704
	L417.457,291.252z M401.921,196.824c22.18-0.393,44.997-0.792,65.421-17.18c-1.875,10.113-6.221,18.364-13.269,25.4
	c-9.364,9.346-22.806,15.959-37.051,22.96c-0.981,0.476-1.981,0.97-2.981,1.464c-3.036-11.364-7.399-22.281-13.008-32.633
	C401.325,196.841,401.617,196.835,401.921,196.824z M430.09,106.99l-40.206,72.314c-3.125-4.238-6.494-8.322-10.06-12.233
	l13.584-22.835l-24.025,12.454c-3.721-3.357-7.59-6.53-11.603-9.495L430.09,106.99z M310.337,123.033
	c15.222-16.132,30.883-32.741,33.455-58.79c5.911,8.411,8.786,17.287,8.881,27.24c0.138,13.233-4.536,27.466-9.488,42.539
	c-0.334,1.018-0.667,2.048-1.013,3.095c-10.262-5.768-21.108-10.286-32.406-13.489C309.962,123.432,310.146,123.229,310.337,123.033
	z M268.536,40.068l22.704,79.547c-5.244-0.786-10.536-1.298-15.846-1.542l-7.376-25.859l-7.394,25.907
	c-4.959,0.256-9.894,0.756-14.793,1.488L268.536,40.068z M179.477,69.898c10.174,1.964,18.441,6.423,25.46,13.614
	c9.191,9.423,15.668,22.847,22.52,37.062c0.429,0.875,0.857,1.768,1.292,2.661c-11.346,3.102-22.252,7.507-32.568,13.168
	c0-0.322-0.006-0.637-0.006-0.958C195.942,113.264,195.704,90.441,179.477,69.898z M179.304,147.195
	c-4.107,3.03-8.06,6.28-11.852,9.715l-23.229-12.733l12.96,22.978c-3.536,3.881-6.876,7.935-9.989,12.149l-40.205-72.314
	L179.304,147.195z M65.1,190.889c8.399-5.673,17.174-8.37,26.948-8.37c13.37,0,27.675,4.988,42.818,10.274
	c0.952,0.333,1.911,0.667,2.881,1.006c-5.863,10.233-10.471,21.055-13.774,32.336c-0.238-0.232-0.477-0.47-0.714-0.703
	C107.424,209.926,91.107,193.942,65.1,190.889z M119.621,245.839c-0.773,5.114-1.28,10.287-1.53,15.478l-26.097,7.62l26.127,7.292
	c0.25,5.03,0.75,10.048,1.5,15.024l-79.553-22.704L119.621,245.839z M135.402,340.839c-22.187,0.203-45.01,0.429-65.564,16.65
	c1.965-10.096,6.369-18.311,13.471-25.281c9.441-9.293,22.942-15.781,37.229-22.681c0.881-0.41,1.768-0.857,2.667-1.279
	c3.089,11.346,7.494,22.251,13.149,32.579C136.045,340.828,135.718,340.828,135.402,340.839z M106.989,430.096l40.205-72.309
	c3.232,4.369,6.715,8.584,10.418,12.607l-13.389,22.508l23.71-12.292c3.644,3.279,7.441,6.375,11.376,9.286L106.989,430.096z
	 M226.992,414.286c-15.353,16.001-31.146,32.484-33.926,58.516c-5.846-8.459-8.644-17.37-8.667-27.312
	c-0.029-13.239,4.75-27.431,9.828-42.467c0.321-0.959,0.643-1.911,0.971-2.888c10.292,5.757,21.168,10.251,32.484,13.424
	C227.456,413.792,227.224,414.036,226.992,414.286z M268.536,497.005l-22.704-79.547c4.882,0.75,9.811,1.238,14.758,1.5
	l7.429,26.014l7.411-25.979c5.304-0.231,10.572-0.744,15.811-1.535L268.536,497.005z M357.543,467.284
	c-26.002-4.84-36.062-25.271-48.379-50.278c-0.488-0.981-0.971-1.976-1.471-2.981c11.358-3.042,22.281-7.412,32.628-13.025
	c0,0.298,0.006,0.584,0.012,0.875C340.731,424.054,341.154,446.871,357.543,467.284z M357.78,389.891
	c4.245-3.132,8.322-6.507,12.222-10.072l22.739,12.465L380.05,369.77c3.477-3.839,6.78-7.834,9.834-11.982l40.205,72.309
	L357.78,389.891z M444.703,354.567c-13.238,0-27.431-4.822-42.461-9.936c-1.018-0.345-2.048-0.696-3.084-1.048
	c5.882-10.202,10.507-21.001,13.835-32.264c0.19,0.19,0.387,0.369,0.595,0.565c15.954,15.382,32.396,31.234,58.421,34.098
	C463.544,351.799,454.645,354.567,444.703,354.567z"/>
<path d="M268.632,371.669c-16.983,0-33.544-3.227-49.224-9.59c-16.233-6.578-30.8-16.251-43.301-28.752l6.44-6.447
	c11.638,11.638,25.187,20.639,40.283,26.77c14.584,5.911,29.996,8.924,45.795,8.924c15.811,0,31.222-3.013,45.794-8.924
	c15.097-6.131,28.651-15.132,40.289-26.77l6.447,6.447c-12.507,12.501-27.067,22.174-43.295,28.752
	C302.176,368.443,285.627,371.669,268.632,371.669z"/>
<path d="M364.912,187.674c-13.728-0.125-50.212-0.447-70.999,20.162c-9.792,9.703-14.757,22.698-14.757,38.633l-0.113,0.149
	l0.107,0.143l-0.25,68.279c0,5.429-4.524,9.857-10.096,9.857c-5.561,0-10.091-4.429-10.091-9.857l-0.595-68.577l0,0
	c-0.006-15.93-4.971-28.918-14.763-38.627c-20.787-20.609-57.272-20.275-71.006-20.162c-0.875,0.006-1.654,0.012-2.321,0.012v9.114
	c0.69,0,1.5-0.006,2.405-0.018c12.697-0.107,46.42-0.405,64.511,17.531c5.721,5.673,9.429,12.816,11.078,21.347
	c-2.686-2.227-5.602-4.167-8.697-5.756c-6.686-3.435-14.216-5.245-21.77-5.245c-7.561,0-15.091,1.81-21.77,5.245
	c-6.459,3.316-12.174,8.155-16.524,13.995l-2.024,2.72l2.024,2.727c4.345,5.84,10.06,10.679,16.524,13.995
	c6.679,3.44,14.209,5.25,21.77,5.25c7.56,0,15.091-1.815,21.77-5.25c3.512-1.798,6.804-4.06,9.774-6.679l0.363,42.206h-7.745
	c-5.917,0-10.732,4.81-10.732,10.733v7.929c0,5.917,4.815,10.732,10.732,10.732h13.335c3.494,3.536,8.363,5.763,13.757,5.763
	c5.107,0,9.744-1.988,13.179-5.191h13.941c5.924,0,10.739-4.833,10.739-10.744v-7.918c0-5.929-4.815-10.744-10.739-10.744h-7.846
	l0.149-42.408c2.863,2.471,6.012,4.602,9.363,6.322c6.686,3.44,14.209,5.25,21.775,5.25c7.555,0,15.085-1.815,21.764-5.25
	c6.459-3.316,12.174-8.155,16.519-13.995l2.024-2.727l-2.024-2.72c-4.352-5.84-10.06-10.679-16.519-13.995
	c-6.68-3.435-14.216-5.245-21.764-5.245c-7.566,0-15.084,1.81-21.775,5.245c-2.923,1.506-5.703,3.315-8.274,5.399
	c1.69-8.363,5.369-15.4,11.019-20.989c18.091-17.936,51.813-17.638,64.511-17.531c0.905,0.012,1.715,0.018,2.399,0.018v-9.114
	C366.573,187.686,365.793,187.68,364.912,187.674z M217.551,257.691c-6.107,0-11.078-4.958-11.078-11.078
	c0-6.107,4.971-11.078,11.078-11.078c6.113,0,11.078,4.971,11.078,11.078C228.629,252.726,223.664,257.691,217.551,257.691z
	 M188.787,246.613c2.988-3.352,6.477-6.113,10.315-8.203c-1.119,2.512-1.744,5.286-1.744,8.203c0,2.923,0.632,5.703,1.744,8.203
	C195.27,252.732,191.775,249.97,188.787,246.613z M235.992,254.816c1.125-2.506,1.75-5.28,1.75-8.203
	c0-2.917-0.625-5.691-1.75-8.203c3.846,2.096,7.334,4.852,10.328,8.203C243.326,249.97,239.838,252.732,235.992,254.816z
	 M241.713,319.129c-0.893,0-1.619-0.714-1.619-1.613v-7.929c0-0.899,0.727-1.619,1.619-1.619h7.816l0.065,7.071
	c0,1.406,0.16,2.775,0.458,4.09H241.713z M295.919,308.534c0.899,0,1.625,0.727,1.625,1.625v7.918c0,0.881-0.726,1.619-1.625,1.619
	h-8.5c0.381-1.5,0.595-3.061,0.595-4.656l0.03-6.512h7.875V308.534z M319.367,235.535c6.102,0,11.072,4.971,11.072,11.078
	c0,6.113-4.971,11.078-11.072,11.078c-6.107,0-11.078-4.958-11.078-11.078C308.283,240.505,313.254,235.535,319.367,235.535z
	 M348.125,246.613c-2.988,3.357-6.477,6.12-10.322,8.203c1.125-2.506,1.756-5.28,1.756-8.203c0-2.917-0.625-5.691-1.756-8.203
	C341.648,240.5,345.137,243.261,348.125,246.613z M300.913,238.41c-1.119,2.512-1.744,5.286-1.744,8.203
	c0,2.923,0.625,5.703,1.744,8.203c-3.839-2.083-7.315-4.846-10.315-8.203C293.592,243.261,297.074,240.5,300.913,238.41z"/>
<circle cx="217.551" cy="246.619" r="6.209"/>
<circle cx="319.367" cy="246.619" r="6.209"/>
</svg>
