<svg xmlns="http://www.w3.org/2000/svg" xmlns:xlink="http://www.w3.org/1999/xlink" version="1.1" x="0px" y="0px" viewBox="0 0 100 125" enable-background="new 0 0 100 100" xml:space="preserve"><g><path fill="#000000" d="M85.578,61.357c-2.027,0-3.783-0.502-5.528-1.577c-1.592-0.979-2.966-2.304-4.421-3.706   c-0.106-0.103-0.212-0.204-0.318-0.309l19.781-5.644l-18.875-5.388c2.355-1.16,4.561-2.298,6.236-3.972   c0.99-0.987,1.708-2.072,2.197-3.316c0.533-1.36,0.781-2.874,0.755-4.629l-0.037-2.434l-1.588,1.845   c-1.507,1.752-3.194,2.834-5.311,3.405c-1.926,0.52-3.962,0.555-6.117,0.593c-0.161,0.003-0.323,0.006-0.488,0.009l10.014-18.013   l-17.564,9.765c0.866-2.64,1.674-5.137,1.647-7.629c-0.015-1.399-0.287-2.671-0.837-3.89c-0.598-1.333-1.507-2.568-2.782-3.776   l-1.766-1.674l0.211,2.425c0.199,2.303-0.207,4.265-1.278,6.178c-0.975,1.74-2.371,3.221-3.851,4.788   c-0.035,0.038-0.072,0.076-0.108,0.114L49.98,5.009l-5.435,19.042c-1.148-2.375-2.268-4.602-3.927-6.303   c-0.971-0.995-2.038-1.724-3.263-2.226c-1.34-0.55-2.833-0.817-4.566-0.817c-0.042,0-0.084,0-0.127,0l-2.433,0.019l1.833,1.601   c1.741,1.521,2.811,3.216,3.365,5.335c0.505,1.931,0.526,3.965,0.548,6.12c0.001,0.13,0.003,0.26,0.005,0.392l-17.898-9.951   l9.603,17.273c-2.531-0.88-4.938-1.674-7.354-1.674c-2.838,0-5.336,1.136-7.638,3.474l-1.708,1.734l2.427-0.165   c0.293-0.02,0.584-0.029,0.867-0.029c2.054,0,3.827,0.508,5.578,1.6c1.598,0.994,2.971,2.34,4.423,3.763   c0.1,0.098,0.201,0.196,0.302,0.295L4.869,50.122l19.02,5.426c-2.383,1.152-4.618,2.276-6.319,3.949   c-0.998,0.979-1.725,2.057-2.223,3.299c-0.545,1.354-0.804,2.867-0.792,4.621l0.017,2.435l1.602-1.832   c1.521-1.741,3.218-2.809,5.338-3.363c1.93-0.504,3.965-0.522,6.121-0.544c0.134,0,0.27-0.002,0.407-0.005l-9.958,17.911   l17.632-9.802c-0.889,2.641-1.72,5.135-1.715,7.634c0.003,1.396,0.267,2.672,0.804,3.895c0.588,1.339,1.489,2.579,2.752,3.798   l1.752,1.688l-0.19-2.425c-0.181-2.306,0.242-4.265,1.329-6.169c0.988-1.73,2.397-3.201,3.889-4.756   c0.031-0.033,0.063-0.065,0.095-0.1l5.551,19.451l5.393-18.896c1.152,2.33,2.277,4.515,3.92,6.184   c0.969,0.987,2.028,1.708,3.241,2.206c1.329,0.545,2.806,0.812,4.514,0.812c0,0,0,0,0.001,0c0.084,0,0.171-0.002,0.257-0.002   l2.433-0.039l-1.846-1.586c-1.752-1.505-2.836-3.193-3.407-5.31c-0.521-1.927-0.559-3.96-0.599-6.114   c-0.003-0.158-0.005-0.314-0.008-0.476l17.999,10.008l-9.565-17.208c2.502,0.848,4.88,1.608,7.262,1.608   c1.397,0,2.672-0.26,3.896-0.794c1.337-0.585,2.582-1.48,3.802-2.741l1.694-1.748l-2.428,0.185   C86.214,61.344,85.89,61.357,85.578,61.357z M69.741,62.763l-0.064,0.1c-1.789,2.761-4.195,5.165-6.955,6.954l-0.151,0.098   L62.434,70c-2.289,1.438-4.785,2.458-7.416,3.035l-0.016,0.002l-0.104,0.021c-3.212,0.686-6.616,0.688-9.829,0.002   c-2.638-0.562-5.141-1.57-7.438-2.995l-0.191-0.119l-0.201-0.13c-2.76-1.789-5.165-4.193-6.954-6.954l-0.063-0.098l-0.062-0.097   c-1.449-2.285-2.481-4.777-3.07-7.41l-0.025-0.11l-0.023-0.109c-0.343-1.606-0.516-3.262-0.516-4.917   c0-1.657,0.173-3.312,0.516-4.917l0.024-0.113l0.028-0.125c0.59-2.633,1.625-5.125,3.076-7.407l0.054-0.085l0.062-0.094   c1.79-2.76,4.194-5.166,6.954-6.955l0.094-0.061l0.09-0.058c2.283-1.45,4.774-2.483,7.406-3.073l0.12-0.027l0.115-0.024   c3.213-0.686,6.621-0.686,9.833,0l0.084,0.018c2.628,0.57,5.119,1.583,7.405,3.011l0.149,0.093l0.187,0.122   c2.76,1.789,5.166,4.194,6.955,6.955l0.104,0.162l0.088,0.14c1.433,2.287,2.45,4.778,3.025,7.407l0.025,0.116   c0.343,1.606,0.517,3.261,0.517,4.917c0,1.655-0.174,3.31-0.517,4.917l-0.035,0.166l-0.034,0.149   c-0.599,2.627-1.64,5.11-3.094,7.385L69.741,62.763z M74.997,53.936c0.129-0.854,0.214-1.714,0.255-2.576l4.363-1.274l-4.363-1.218   c-0.042-0.857-0.127-1.713-0.255-2.56l13.364,3.814L74.997,53.936z M72.387,38.073c3.726-0.066,7.559-0.133,10.99-2.886   c-0.315,1.699-1.045,3.085-2.229,4.267c-1.573,1.57-3.831,2.681-6.224,3.857c-0.165,0.08-0.333,0.163-0.501,0.246   c-0.51-1.909-1.243-3.743-2.185-5.482C72.287,38.076,72.336,38.075,72.387,38.073z M77.119,22.982L70.365,35.13   c-0.525-0.712-1.091-1.398-1.69-2.055l2.282-3.836l-4.036,2.092c-0.625-0.564-1.275-1.097-1.949-1.595L77.119,22.982z    M57.002,25.677c2.557-2.71,5.188-5.5,5.62-9.876c0.993,1.413,1.476,2.904,1.492,4.576c0.023,2.223-0.762,4.614-1.594,7.146   c-0.056,0.171-0.112,0.344-0.17,0.52c-1.724-0.969-3.546-1.728-5.444-2.266C56.939,25.744,56.97,25.71,57.002,25.677z M49.98,11.74   l3.814,13.363c-0.881-0.132-1.77-0.218-2.662-0.259l-1.239-4.344l-1.242,4.352c-0.833,0.043-1.662,0.127-2.485,0.25L49.98,11.74z    M35.019,16.751c1.709,0.33,3.098,1.079,4.277,2.287c1.544,1.583,2.632,3.838,3.783,6.226c0.072,0.147,0.144,0.297,0.217,0.447   c-1.906,0.521-3.738,1.261-5.471,2.212c0-0.054-0.001-0.107-0.001-0.161C37.785,24.036,37.745,20.202,35.019,16.751z M34.99,29.736   c-0.69,0.509-1.354,1.055-1.991,1.632l-3.902-2.139l2.177,3.86c-0.594,0.652-1.155,1.333-1.678,2.041l-6.754-12.148L34.99,29.736z    M15.805,37.076c1.411-0.953,2.885-1.406,4.527-1.406c2.246,0,4.649,0.838,7.193,1.726c0.16,0.056,0.321,0.112,0.484,0.169   c-0.985,1.719-1.759,3.537-2.314,5.432c-0.04-0.039-0.08-0.079-0.12-0.118C22.915,40.274,20.174,37.589,15.805,37.076z    M24.964,46.307c-0.13,0.859-0.215,1.728-0.257,2.6l-4.384,1.28l4.389,1.225c0.042,0.845,0.126,1.688,0.252,2.524L11.6,50.122   L24.964,46.307z M27.615,62.266c-3.727,0.034-7.561,0.072-11.014,2.797c0.33-1.696,1.07-3.076,2.263-4.247   c1.586-1.561,3.854-2.651,6.254-3.81c0.148-0.069,0.297-0.144,0.448-0.215c0.519,1.906,1.259,3.738,2.209,5.473   C27.723,62.264,27.668,62.264,27.615,62.266z M22.842,77.26l6.754-12.147c0.543,0.734,1.128,1.442,1.75,2.118l-2.249,3.781   l3.983-2.065c0.612,0.551,1.25,1.071,1.911,1.56L22.842,77.26z M43.001,74.604c-2.579,2.688-5.232,5.457-5.699,9.83   c-0.982-1.421-1.452-2.918-1.456-4.588c-0.005-2.224,0.798-4.608,1.651-7.134c0.054-0.161,0.108-0.321,0.163-0.485   c1.729,0.967,3.556,1.722,5.457,2.255C43.079,74.521,43.04,74.562,43.001,74.604z M49.98,88.5l-3.814-13.363   c0.82,0.126,1.648,0.208,2.479,0.252l1.248,4.37l1.245-4.364c0.891-0.039,1.776-0.125,2.656-0.258L49.98,88.5z M64.932,83.507   c-4.368-0.813-6.058-4.245-8.127-8.446c-0.082-0.165-0.163-0.332-0.247-0.501c1.908-0.511,3.743-1.245,5.481-2.188   c0,0.05,0.001,0.098,0.002,0.147C62.108,76.245,62.179,80.078,64.932,83.507z M64.972,70.506c0.713-0.526,1.398-1.093,2.053-1.692   l3.82,2.094l-2.132-3.782c0.584-0.645,1.139-1.316,1.652-2.013l6.754,12.147L64.972,70.506z M79.574,64.572   c-2.224,0-4.608-0.81-7.133-1.669c-0.171-0.058-0.344-0.117-0.518-0.176c0.988-1.714,1.765-3.528,2.324-5.42   c0.032,0.032,0.065,0.062,0.1,0.095c2.68,2.584,5.442,5.247,9.814,5.728C82.739,64.107,81.244,64.572,79.574,64.572z"/><g><path fill="#000000" d="M49.996,67.445c-2.853,0-5.635-0.542-8.269-1.611c-2.727-1.105-5.174-2.73-7.274-4.83l1.082-1.083    c1.955,1.955,4.231,3.467,6.767,4.497c2.45,0.993,5.039,1.499,7.693,1.499c2.656,0,5.245-0.506,7.693-1.499    c2.536-1.03,4.813-2.542,6.768-4.497l1.083,1.083c-2.101,2.1-4.547,3.725-7.273,4.83C55.631,66.903,52.851,67.445,49.996,67.445z"/></g><g><path fill="#000000" d="M66.17,36.536c-2.306-0.021-8.435-0.075-11.927,3.387c-1.645,1.63-2.479,3.813-2.479,6.49l-0.019,0.025    l0.018,0.024l-0.042,11.47c0,0.912-0.76,1.656-1.696,1.656c-0.934,0-1.695-0.744-1.695-1.656l-0.1-11.52l0,0    c-0.001-2.676-0.835-4.858-2.48-6.489c-3.492-3.462-9.621-3.406-11.928-3.387c-0.147,0.001-0.278,0.002-0.39,0.002v1.531    c0.116,0,0.252-0.001,0.404-0.003c2.133-0.018,7.798-0.068,10.837,2.945c0.961,0.953,1.584,2.153,1.861,3.586    c-0.451-0.374-0.941-0.7-1.461-0.967c-1.123-0.577-2.388-0.881-3.657-0.881c-1.27,0-2.535,0.304-3.657,0.881    c-1.085,0.557-2.045,1.37-2.776,2.351l-0.34,0.457l0.34,0.458c0.73,0.981,1.69,1.794,2.776,2.351    c1.122,0.578,2.387,0.882,3.657,0.882c1.27,0,2.535-0.305,3.657-0.882c0.59-0.302,1.143-0.682,1.642-1.122l0.061,7.09h-1.301    c-0.994,0-1.803,0.808-1.803,1.803v1.332c0,0.994,0.809,1.803,1.803,1.803h2.24c0.587,0.594,1.405,0.968,2.311,0.968    c0.858,0,1.637-0.334,2.214-0.872h2.342c0.995,0,1.804-0.812,1.804-1.805v-1.33c0-0.996-0.809-1.805-1.804-1.805h-1.318    l0.025-7.124c0.481,0.415,1.01,0.773,1.573,1.062c1.123,0.578,2.387,0.882,3.658,0.882c1.269,0,2.534-0.305,3.656-0.882    c1.085-0.557,2.045-1.37,2.775-2.351l0.34-0.458l-0.34-0.457c-0.731-0.981-1.69-1.794-2.775-2.351    c-1.122-0.577-2.388-0.881-3.656-0.881c-1.271,0-2.534,0.304-3.658,0.881c-0.491,0.253-0.958,0.557-1.39,0.907    c0.284-1.405,0.902-2.587,1.851-3.526c3.039-3.013,8.704-2.963,10.837-2.945c0.152,0.002,0.288,0.003,0.403,0.003v-1.531    C66.449,36.538,66.318,36.537,66.17,36.536z M41.415,48.298c-1.026,0-1.861-0.833-1.861-1.861c0-1.026,0.835-1.861,1.861-1.861    c1.027,0,1.861,0.835,1.861,1.861C43.276,47.464,42.442,48.298,41.415,48.298z M36.583,46.437    c0.502-0.563,1.088-1.027,1.733-1.378c-0.188,0.422-0.293,0.888-0.293,1.378c0,0.491,0.106,0.958,0.293,1.378    C37.672,47.465,37.085,47.001,36.583,46.437z M44.513,47.815c0.189-0.421,0.294-0.887,0.294-1.378c0-0.49-0.105-0.956-0.294-1.378    c0.646,0.352,1.232,0.815,1.735,1.378C45.745,47.001,45.159,47.465,44.513,47.815z M45.474,58.619c-0.15,0-0.272-0.12-0.272-0.271    v-1.332c0-0.151,0.122-0.272,0.272-0.272h1.313l0.011,1.188c0,0.236,0.027,0.466,0.077,0.687H45.474z M54.58,56.839    c0.151,0,0.273,0.122,0.273,0.273v1.33c0,0.148-0.122,0.272-0.273,0.272h-1.428c0.064-0.252,0.1-0.514,0.1-0.782l0.005-1.094    H54.58z M58.519,44.576c1.025,0,1.86,0.835,1.86,1.861c0,1.027-0.835,1.861-1.86,1.861c-1.026,0-1.861-0.833-1.861-1.861    C56.657,45.411,57.492,44.576,58.519,44.576z M63.35,46.437c-0.502,0.564-1.088,1.028-1.734,1.378    c0.189-0.421,0.295-0.887,0.295-1.378c0-0.49-0.105-0.956-0.295-1.378C62.262,45.41,62.848,45.874,63.35,46.437z M55.419,45.059    c-0.188,0.422-0.293,0.888-0.293,1.378c0,0.491,0.105,0.958,0.293,1.378c-0.645-0.35-1.229-0.814-1.733-1.378    C54.189,45.874,54.774,45.41,55.419,45.059z"/><circle fill="#000000" cx="41.415" cy="46.438" r="1.043"/><circle fill="#000000" cx="58.519" cy="46.438" r="1.043"/></g></g></svg>