<?xml version="1.0" encoding="utf-8"?>
<!-- Generator: Adobe Illustrator 15.1.0, SVG Export Plug-In  -->
<!DOCTYPE svg PUBLIC "-//W3C//DTD SVG 1.1//EN" "http://www.w3.org/Graphics/SVG/1.1/DTD/svg11.dtd" [
	<!ENTITY ns_flows "http://ns.adobe.com/Flows/1.0/">
]>
<svg version="1.1"
	 xmlns="http://www.w3.org/2000/svg" xmlns:xlink="http://www.w3.org/1999/xlink" xmlns:a="http://ns.adobe.com/AdobeSVGViewerExtensions/3.0/"
	 x="0px" y="0px" width="800px" height="600px" viewBox="-172.069 -54.999 800 600"
	 overflow="visible" enable-background="new -172.069 -54.999 800 600" xml:space="preserve">
<defs>
</defs>
<path d="M165.718,100.292h126.456l11.559-16.493c9.441-14.232,19.843-27.864,28.843-42.384c4.272-6.898,12.278-18.188,9.125-26.923
	c-2.251-6.24-8.011-8.366-14.184-9.451c-4.465-0.782-27.283-6.547-36.495-4.666c-8.174,1.675-15.725,5.553-23.567,8.28
	c-11.045,3.84-23.271,7.061-35.386,6.398c-10.469-0.571-22.363-1.91-32.232-5.477c-8.179-2.962-16.08-7.32-24.734-8.803
	c-7.474-1.282-34.695,2.491-40.171,3.432c-38.549,6.634-10.521,35.967,19.229,79.594L165.718,100.292z M444.32,331.561
	c-32.419-74.697-91.118-156.153-152.611-195.451H164.125C102.646,175.417,43.957,256.878,11.547,331.561
	c-32.496,74.871,6.484,148.436,80.76,148.436H363.56C437.835,479.996,476.816,406.432,444.32,331.561z M239.788,399.375v30.317
	h-24.14v-28.551c-18.542-0.585-37.085-5.885-47.688-12.95l7.954-27.672c11.481,6.772,27.965,12.95,45.921,12.95
	c18.542,0,31.2-9.125,31.2-23.251c0-13.248-10.305-21.787-32.087-29.731c-30.912-11.188-50.928-25.314-50.928-52.694
	c0-25.315,17.659-44.741,47.391-50.04v-28.848h24.139v27.375c18.543,0.59,31.2,5.002,40.623,9.715l-7.944,27.077
	c-7.07-3.24-20.021-10.008-40.037-10.008c-20.601,0-27.959,10.598-27.959,20.611c0,12.066,10.598,18.83,35.611,28.843
	c32.972,12.365,47.693,28.263,47.693,54.456C289.535,372.006,272.167,394.081,239.788,399.375z"/>
</svg>
