<svg xmlns="http://www.w3.org/2000/svg" xmlns:xlink="http://www.w3.org/1999/xlink" version="1.1" id="Layer_2" x="0px" y="0px" viewBox="5.0 -10.0 100.0 135.0" enable-background="new 0 0 100 100" xml:space="preserve" height="100px" width="100px">
<path d="M56.1,51.7c-0.1-0.5-0.2-3.4-0.1-5.1c0-0.6,0.3-6.7,1-8.9c0.2-0.6,0.4-1.1,0.6-1.6c2-5.7,8.8-6.5,14.1-6.1  c0.5,0,1,0.1,1.5,0.1c1.4,0.1,2.9,0.4,4.3,0.8c0.5,0.1,1,0.3,1.5,0.4c1.4,0.5,2.8,1.2,4.1,2.1c0.5,0.5,0.5,1.7-0.2,1.5  c-1.2-0.2-2.3-0.5-3.5-0.8c-0.6-0.1-1.2-0.3-1.7-0.4c-1.3-0.4-2.6-0.7-4-0.8c-0.5,0-0.9-0.1-1.4-0.1c-4.8-0.6-9.6,2-11.7,6.6  c-0.3,0.5-0.5,1.1-0.7,1.6c-0.7,1.7-1.1,3.4-1.4,5.1c-0.1,0.5-0.2,1-0.2,1.4c-0.2,1.4-0.3,2.9-0.4,4.4c0,0.5-0.5,0.7-0.9,0.7  C56.4,52.6,56.1,52.2,56.1,51.7z"/>
<path d="M21.9,37.2c2.4-1.5,5-2.8,7.8-3.5c0.6-0.1,2.9-0.6,3.5-0.7c4.3-0.3,8.5,0.9,12.1,3.3c0.9-5-7.5-7.1-11.6-7.1  c-0.9,0-2.3,0-4.9,0.8c-3.3,1.1-6.3,2.8-7.9,6.3c-0.1,0.4-0.2,0.8-0.2,1.2c-0.2,0,0.5,0,0.7-0.1C21.7,37.3,21.8,37.3,21.9,37.2z"/>
<path d="M41.9,41.2c-5.4,3.5-11.7,3.1-16.5,0.1c-0.5,0-0.7,0.5-0.7,1c1,2.4,3,3.4,5.5,4.2c1.2,0.4,4.6,0.8,7.4-0.3  c1.1-0.4,2-1,3.4-2.2c0.9-0.9,1.2-1.2,1.5-2C42.5,41.3,42.2,41.3,41.9,41.2z"/>
<path d="M81.6,40.8c-4.7,3.2-10.2,4.7-16.7,0.6c0-0.2-0.7,0.5-0.5,1c1.9,3.4,5.6,4.8,9.2,4.9c3,0,5.8-1.2,7.5-3.4  c0.7-0.9,1.3-1.7,0.8-2.9C81.8,41,81.7,40.9,81.6,40.8z"/>
<g>
	<path d="M50,3.9C24.6,3.9,3.9,24.6,3.9,50c0,25.4,20.7,46.1,46.1,46.1c25.4,0,46.1-20.7,46.1-46.1C96.1,24.6,75.4,3.9,50,3.9z    M53.3,92.3C31.7,92.3,14,73.3,14,50S31.7,7.7,53.3,7.7s39.3,19,39.3,42.3S75,92.3,53.3,92.3z"/>
</g>
<path d="M58,60.8c0.5,1.6,0.5,3.3-0.6,4.1c-0.2,0.2-0.5,0.5-0.8,0.6c-1,0.7-2.1,1.1-3.4,1.2c-0.3,0-0.6,0.1-0.9,0.1  c-0.9,0.1-1.9-0.1-2.9-0.5c-0.3-0.1-0.6-0.3-0.9-0.5c-1.2-0.9-4.1-3.6-2.2-4.3c1-0.5,2.7,1.9,4.7,2c0.3,0,3.9,0.7,6.5-3.7  c0.2,0.2,0.2,0.5,0.5,0.7L58,60.8z"/>
<path d="M41.1,72.3c0.3,0.1,0.6,0.3,1,0.4c0.2,0,0.4,0.1,0.6,0.1c3.1-1.4,6.3-2.1,9.6-0.9c0.3,0,0.6,0,0.9,0c0.3,0,0.6,0,0.9,0  c1.2-0.2,1.9-1.2,3.2-1.3c0.4,0,1.8,0,2.9,0.9c0.4,0.2,0.7,0.4,1.1,0.6c1.6,1.3,3.3,0.4,5.2,0.6c-0.5,2.2-3.2,3.2-5.1,2.4  c-0.2-0.1-0.3-0.1-0.5-0.2c-0.2-0.1-0.3-0.1-0.5-0.2c-0.2-0.1-0.3-0.1-0.5-0.2c-0.1-0.1-0.3-0.1-0.4-0.2c-0.1,0-0.3-0.1-0.4-0.2  s-0.3-0.1-0.5-0.2c-0.4-0.2-0.8-0.3-1.2-0.3c-0.4,0-0.7,0.2-1,0.4c-0.3,0.2-0.6,0.4-1,0.7c-0.3,0.2-0.6,0.5-0.9,0.7  c-0.3,0.2-0.7,0.3-1.1,0.5c-0.5,0.2-1.1,0.2-1.7,0.2c-0.3,0-0.6-0.1-0.9-0.1c-0.3-0.1-0.6-0.2-0.9-0.3c-1.6-1.7-3.6-0.5-5.5,0  c-0.2,0-0.5,0.1-0.7,0.1s-0.5,0-0.7,0.1c-0.2,0-0.4,0-0.5,0c-2-0.1-3.2-1.6-3.5-3.3c0-0.2,1-0.2,1.5-0.2  C40.9,72.3,41.1,72.3,41.1,72.3z"/>
<path d="M48.5,78.4c0.5,0.5,5.5,2.1,7.3,0.6c0.2-0.2,0.4-0.3,0.6-0.5c0.6-0.5,1.3-0.8,2.1-0.6c0.5,0.2,0.5,0.7,0.2,1  c-0.2,0.2-0.4,0.4-0.5,0.7c-0.2,0.2-0.4,0.5-0.5,0.7c-1.8,2.3-6.9,2.8-9.1,0.6c-0.2-0.2-0.4-0.4-0.5-0.6c-0.2-0.2-0.3-0.4-0.5-0.6  c-0.5-0.5-0.2-1,0.2-1.4C48,78.2,48.3,78.2,48.5,78.4z"/>
</svg>