<svg xmlns="http://www.w3.org/2000/svg" xmlns:xlink="http://www.w3.org/1999/xlink" version="1.1" x="0px" y="0px" viewBox="0 0 100 125" enable-background="new 0 0 100 100" xml:space="preserve"><g><path d="M94.1,48.9H75.7c0,0.2,0,0.4,0,0.5c0,0.2,0,0.4,0,0.5c0,0.4,0,0.7,0,1.1h18.4c0.6,0,1.1-0.5,1.1-1.1   C95.2,49.4,94.7,48.9,94.1,48.9z"/><path d="M91.3,65.4l-17.2-6.9c-0.3,0.7-0.6,1.4-0.9,2l17.3,7c0.1,0.1,0.3,0.1,0.4,0.1c0.4,0,0.9-0.3,1-0.7   C92.1,66.3,91.9,65.7,91.3,65.4z"/><path d="M74.3,40.9L91,33.7c0.3-0.1,0.5-0.3,0.6-0.6c0.1-0.3,0.1-0.6,0-0.8c-0.2-0.4-0.6-0.7-1-0.7c-0.1,0-0.3,0-0.4,0.1l-16.7,7.1   C73.7,39.5,74,40.2,74.3,40.9z"/><path d="M88.7,42.5c0.2-0.2,0.2-0.5,0.2-0.8c-0.1-0.6-0.7-1-1.3-0.8L75,43.5c0.1,0.4,0.2,0.7,0.2,1.1c0.1,0.4,0.1,0.7,0.2,1.1   L88,43C88.3,42.9,88.5,42.7,88.7,42.5z"/><path d="M86.2,58c0.1,0,0.1,0,0.2,0c0.5,0,1-0.4,1.1-0.9c0.1-0.3,0-0.6-0.2-0.8c-0.2-0.2-0.4-0.4-0.7-0.5l-11.2-2.1   c-0.1,0.7-0.3,1.4-0.5,2.1L86.2,58z"/><path d="M83,70l-11.1-7.2c-0.2,0.3-0.4,0.6-0.6,0.9c-0.2,0.3-0.4,0.6-0.6,0.9l11.2,7.2c0.2,0.1,0.4,0.2,0.6,0.2   c0.4,0,0.7-0.2,0.9-0.5C83.7,71.1,83.5,70.4,83,70z"/><path d="M68.4,31.6c0.3,0.3,0.5,0.5,0.8,0.8L82,19.6c0.4-0.4,0.4-1.1,0-1.5c-0.4-0.4-1.1-0.4-1.6,0L67.6,30.9   C67.8,31.1,68.1,31.4,68.4,31.6z"/><path d="M68.6,67c-0.3,0.3-0.5,0.5-0.8,0.8c-0.3,0.3-0.5,0.5-0.8,0.7l13.4,13.4c0.2,0.2,0.5,0.3,0.8,0.3c0.3,0,0.6-0.1,0.8-0.3   c0.4-0.4,0.4-1.1,0-1.5L68.6,67z"/><path d="M81.7,29.3c0.1-0.3,0-0.6-0.2-0.8C81.3,28.2,81,28,80.6,28c-0.2,0-0.4,0.1-0.6,0.2l-9.2,6.2c0.4,0.6,0.8,1.2,1.2,1.8   l9.2-6.3C81.5,29.9,81.6,29.6,81.7,29.3z"/><path d="M64.1,28.2c0.3,0.2,0.6,0.4,0.9,0.6l6.9-10.6c0.3-0.5,0.2-1.2-0.3-1.5c-0.2-0.1-0.4-0.2-0.6-0.2c-0.4,0-0.7,0.2-0.9,0.5   l-6.9,10.6C63.5,27.8,63.8,28,64.1,28.2z"/><path d="M65,70.1c-0.6,0.4-1.2,0.8-1.8,1.2l6.8,9.9c0.2,0.3,0.5,0.5,0.9,0.5c0.2,0,0.4-0.1,0.6-0.2c0.5-0.3,0.6-1,0.3-1.5L65,70.1z   "/><path d="M54.3,70.2c0.4-0.1,0.7-0.1,1.1-0.2c0.6-0.1,1.1-0.3,1.7-0.5c0.7-0.2,1.4-0.5,2-0.8c0.6-0.3,1.1-0.5,1.7-0.8   c0.6-0.4,1.3-0.8,1.9-1.2c0.5-0.3,0.9-0.7,1.4-1.1c0.3-0.2,0.6-0.5,0.8-0.7c0.3-0.2,0.5-0.5,0.8-0.8c0.5-0.5,1-1.1,1.5-1.7   c0.2-0.3,0.4-0.6,0.7-0.9c0.2-0.3,0.4-0.6,0.6-0.9c0.3-0.5,0.6-1.1,0.9-1.6c0.3-0.6,0.6-1.3,0.9-2c0.2-0.6,0.4-1.3,0.6-1.9   c0.2-0.7,0.4-1.4,0.5-2.1c0.1-0.6,0.2-1.2,0.2-1.8c0-0.4,0-0.7,0.1-1.1c0-0.2,0-0.4,0-0.5c0-0.2,0-0.4,0-0.5c0-0.8-0.1-1.6-0.2-2.4   c-0.1-0.4-0.1-0.7-0.2-1.1c-0.1-0.4-0.1-0.7-0.2-1.1c-0.2-0.6-0.3-1.3-0.6-1.9c-0.2-0.7-0.5-1.4-0.8-2c-0.3-0.6-0.6-1.2-1-1.8   c-0.4-0.6-0.8-1.2-1.2-1.8c-0.4-0.5-0.8-1-1.2-1.5c-0.2-0.3-0.5-0.5-0.8-0.8c-0.3-0.3-0.5-0.5-0.8-0.8c-0.6-0.5-1.2-1-1.9-1.5   c-0.3-0.2-0.6-0.4-0.9-0.6c0,0,0,0,0,0c-0.3-0.2-0.6-0.4-0.9-0.6c-0.6-0.3-1.2-0.6-1.8-0.9c-0.7-0.3-1.3-0.6-2-0.8   c-0.7-0.2-1.3-0.4-2-0.5c-0.7-0.2-1.4-0.3-2.2-0.4c-0.6-0.1-1.2-0.1-1.8-0.1c-0.2,0-0.4,0-0.5,0s-0.4,0-0.5,0c-0.4,0-0.7,0-1.1,0.1   c-0.8,0.1-1.6,0.2-2.3,0.3c-0.4,0.1-0.7,0.1-1.1,0.2c-0.4,0.1-0.7,0.2-1.1,0.3c-0.6,0.2-1.2,0.4-1.8,0.6c-0.7,0.3-1.3,0.6-2,0.9   c-0.6,0.3-1.1,0.6-1.7,1c-0.6,0.4-1.2,0.8-1.8,1.3c-0.5,0.4-0.9,0.8-1.3,1.2c-0.3,0.3-0.5,0.5-0.8,0.8c-0.2,0.3-0.5,0.5-0.7,0.8   c-0.5,0.6-0.9,1.2-1.3,1.8c-0.2,0.3-0.4,0.6-0.6,0.9c-0.2,0.3-0.4,0.6-0.5,1c-0.3,0.5-0.5,1.1-0.8,1.6c-0.3,0.7-0.5,1.4-0.7,2.1   c-0.2,0.6-0.3,1.2-0.5,1.8c-0.2,0.7-0.3,1.4-0.3,2.2c-0.1,0.5-0.1,1.1-0.1,1.6c0,0.2,0,0.4,0,0.5c0,0.2,0,0.4,0,0.5   c0,0.4,0,0.7,0.1,1.1c0.1,0.7,0.1,1.4,0.3,2.1c0.1,0.4,0.1,0.7,0.2,1.1c0.1,0.4,0.2,0.7,0.3,1.1c0.2,0.5,0.3,1.1,0.5,1.6   c0.3,0.7,0.6,1.4,0.9,2c0.3,0.5,0.6,1,0.9,1.5c0.4,0.6,0.8,1.2,1.2,1.8c0.3,0.4,0.7,0.8,1,1.2c0.2,0.3,0.5,0.5,0.8,0.8   c0.3,0.3,0.5,0.5,0.8,0.8c0.5,0.5,1.1,0.9,1.6,1.3c0.3,0.2,0.6,0.4,0.9,0.6c0.3,0.2,0.6,0.4,0.9,0.6c0.5,0.3,1,0.6,1.5,0.8   c0.7,0.3,1.3,0.6,2,0.8c0.6,0.2,1.1,0.4,1.7,0.5c0.7,0.2,1.4,0.3,2.1,0.5c0.5,0.1,1.1,0.1,1.6,0.2c0.4,0,0.7,0,1.1,0.1   c0.2,0,0.4,0,0.5,0s0.4,0,0.5,0c0.7,0,1.4-0.1,2.1-0.2C53.6,70.3,54,70.2,54.3,70.2C54.3,70.2,54.3,70.2,54.3,70.2z M52.5,66.8   c-0.5,0-0.9,0.1-1.4,0.1c-0.2,0-0.4,0-0.5,0s-0.4,0-0.5,0c-0.4,0-0.7,0-1.1-0.1c-0.3,0-0.6-0.1-0.9-0.1c-0.7-0.1-1.4-0.3-2.1-0.5   c-0.3-0.1-0.7-0.2-1-0.3c-0.7-0.2-1.4-0.5-2-0.9c-0.3-0.1-0.6-0.3-0.9-0.5c-0.3-0.2-0.6-0.4-0.9-0.6c-0.3-0.2-0.6-0.4-0.9-0.6   c-0.4-0.3-0.7-0.6-1-0.8c-0.3-0.2-0.5-0.5-0.8-0.7c-0.3-0.3-0.5-0.5-0.7-0.8c-0.2-0.2-0.4-0.5-0.6-0.7c-0.5-0.6-0.9-1.2-1.3-1.8   c-0.2-0.3-0.4-0.6-0.5-0.9c-0.3-0.6-0.6-1.3-0.9-2c-0.1-0.3-0.2-0.6-0.3-1c-0.1-0.4-0.2-0.7-0.3-1.1c-0.1-0.4-0.2-0.7-0.2-1.1   c-0.1-0.4-0.1-0.9-0.2-1.4c0-0.4-0.1-0.7-0.1-1.1c0-0.2,0-0.4,0-0.5c0-0.2,0-0.4,0-0.5c0-0.3,0-0.7,0.1-1c0.1-0.7,0.2-1.5,0.3-2.2   c0.1-0.4,0.2-0.7,0.3-1.1c0.2-0.7,0.4-1.4,0.7-2.1c0.1-0.3,0.3-0.7,0.5-1c0.2-0.3,0.3-0.6,0.5-1c0.2-0.3,0.4-0.6,0.6-0.9   c0.3-0.4,0.6-0.8,0.9-1.2c0.2-0.3,0.5-0.6,0.7-0.8c0.2-0.3,0.5-0.5,0.8-0.8c0.3-0.2,0.5-0.5,0.8-0.7c0.6-0.5,1.1-0.9,1.8-1.3   c0.4-0.2,0.7-0.4,1.1-0.7c0.6-0.4,1.3-0.7,2-0.9c0.4-0.1,0.8-0.3,1.1-0.4c0.3-0.1,0.7-0.2,1.1-0.3c0.4-0.1,0.7-0.2,1.1-0.2   c0.5-0.1,1-0.2,1.6-0.2c0.4,0,0.7-0.1,1.1-0.1c0.2,0,0.4,0,0.5,0s0.4,0,0.5,0c0.4,0,0.8,0,1.2,0.1c0.7,0.1,1.5,0.2,2.2,0.4   c0.4,0.1,0.9,0.2,1.3,0.3c0.7,0.2,1.4,0.5,2,0.8c0.4,0.2,0.8,0.4,1.2,0.6c0.3,0.2,0.6,0.4,0.9,0.6c0.3,0.2,0.6,0.4,0.9,0.6   c0.4,0.3,0.9,0.7,1.3,1c0.3,0.2,0.5,0.5,0.8,0.7c0.3,0.3,0.5,0.5,0.7,0.8c0.3,0.3,0.5,0.6,0.8,0.9c0.4,0.6,0.9,1.2,1.2,1.8   c0.2,0.4,0.4,0.8,0.6,1.2c0.3,0.7,0.6,1.3,0.8,2c0.1,0.4,0.3,0.8,0.4,1.2c0.1,0.4,0.2,0.7,0.2,1.1c0.1,0.4,0.1,0.7,0.2,1.1   c0.1,0.5,0.1,1.1,0.1,1.6c0,0.2,0,0.4,0,0.5c0,0.2,0,0.4,0,0.5c0,0.4,0,0.7-0.1,1.1c0,0.4-0.1,0.8-0.1,1.2   c-0.1,0.7-0.3,1.4-0.5,2.1c-0.1,0.4-0.3,0.8-0.4,1.2c-0.3,0.7-0.6,1.4-0.9,2c-0.2,0.3-0.4,0.7-0.6,1c-0.2,0.3-0.4,0.6-0.6,0.9h0   c-0.2,0.3-0.4,0.6-0.7,0.9c-0.3,0.4-0.7,0.8-1,1.1c-0.3,0.3-0.5,0.5-0.8,0.8s-0.5,0.5-0.8,0.7c-0.3,0.2-0.6,0.4-0.8,0.6   c-0.6,0.4-1.2,0.8-1.9,1.2c-0.3,0.2-0.7,0.4-1.1,0.5c-0.7,0.3-1.3,0.6-2,0.8c-0.3,0.1-0.7,0.2-1,0.3c-0.4,0.1-0.7,0.2-1.1,0.2   C53.2,66.7,52.8,66.8,52.5,66.8z"/><path d="M60.8,72.5c-0.7,0.3-1.3,0.6-2,0.8L66.3,91c0.2,0.4,0.6,0.7,1,0.7c0.1,0,0.3,0,0.4-0.1c0.3-0.1,0.5-0.3,0.6-0.6   c0.1-0.3,0.1-0.6,0-0.8L60.8,72.5z M67.3,91v-0.4c0,0,0,0,0,0L67.3,91z"/><path d="M67.5,9.5c0.2-0.6,0-1.2-0.6-1.4C66.7,8,66.6,8,66.5,8c-0.4,0-0.8,0.3-1,0.7l-6.8,16.9c0.7,0.2,1.4,0.5,2,0.8L67.5,9.5z"/><path d="M56.7,61.8c0.7-0.3,1.3-0.7,1.9-1.1c0.1-0.1,0.2-0.1,0.3-0.2c0.3-0.2,0.6-0.5,0.9-0.7c0.3-0.2,0.5-0.5,0.8-0.8   c0.2-0.2,0.3-0.4,0.5-0.5c0.2-0.3,0.5-0.6,0.7-0.9c0.2-0.3,0.4-0.6,0.6-0.9c0.1-0.1,0.2-0.3,0.2-0.4c0.4-0.6,0.7-1.3,0.9-2   c0.1-0.2,0.1-0.4,0.2-0.5c0.2-0.7,0.4-1.4,0.5-2.1c0-0.2,0-0.3,0.1-0.5c0-0.4,0.1-0.7,0.1-1.1c0-0.2,0-0.4,0-0.5c0-0.2,0-0.4,0-0.5   c0-0.3,0-0.6-0.1-0.9c0-0.4-0.1-0.7-0.2-1.1c-0.1-0.4-0.1-0.7-0.2-1.1c0-0.2-0.1-0.4-0.2-0.6c-0.2-0.7-0.5-1.4-0.8-2   c-0.1-0.2-0.2-0.4-0.3-0.6c-0.4-0.6-0.8-1.2-1.2-1.8c-0.1-0.1-0.2-0.3-0.3-0.4c-0.2-0.3-0.5-0.6-0.7-0.8c-0.3-0.3-0.5-0.5-0.8-0.7   c-0.2-0.2-0.5-0.4-0.7-0.6c-0.3-0.2-0.6-0.4-0.9-0.6c-0.3-0.2-0.6-0.4-0.9-0.6c-0.2-0.1-0.4-0.2-0.5-0.3c-0.7-0.3-1.3-0.6-2.1-0.8   c-0.2-0.1-0.4-0.1-0.6-0.2c-0.7-0.2-1.4-0.3-2.2-0.3c-0.2,0-0.3,0-0.5,0c-0.2,0-0.4,0-0.5,0s-0.4,0-0.5,0c-0.4,0-0.7,0-1.1,0.1   c-0.3,0-0.5,0.1-0.8,0.1c-0.4,0.1-0.7,0.1-1.1,0.2v0c-0.4,0.1-0.7,0.2-1.1,0.3c-0.2,0.1-0.3,0.1-0.5,0.2c-0.7,0.3-1.3,0.6-2,1   c-0.2,0.1-0.3,0.2-0.5,0.3c-0.6,0.4-1.2,0.8-1.7,1.3c-0.1,0.1-0.2,0.2-0.3,0.3c-0.3,0.3-0.5,0.5-0.8,0.8c-0.2,0.3-0.5,0.6-0.7,0.8   c-0.1,0.2-0.3,0.4-0.4,0.6c-0.2,0.3-0.4,0.6-0.6,0.9s-0.4,0.6-0.5,1c-0.1,0.1-0.1,0.2-0.2,0.4c-0.3,0.7-0.5,1.4-0.7,2.1   c0,0.1-0.1,0.3-0.1,0.4c-0.2,0.7-0.3,1.4-0.3,2.2c0,0.1,0,0.2,0,0.3c0,0.2,0,0.4,0,0.5c0,0.2,0,0.4,0,0.5c0,0.4,0,0.7,0.1,1.1   c0,0.2,0.1,0.4,0.1,0.6c0.1,0.4,0.1,0.7,0.2,1.1c0.1,0.4,0.2,0.7,0.3,1.1c0,0.1,0.1,0.2,0.1,0.3c0.2,0.7,0.6,1.4,0.9,2   c0.1,0.1,0.1,0.2,0.2,0.3c0.4,0.6,0.8,1.2,1.3,1.8c0.1,0.1,0.1,0.1,0.2,0.2c0.2,0.3,0.5,0.5,0.7,0.8c0.3,0.3,0.5,0.5,0.8,0.7   c0.1,0.1,0.3,0.2,0.4,0.4c0.3,0.2,0.6,0.4,0.9,0.6c0.3,0.2,0.6,0.4,0.9,0.6c0.1,0,0.2,0.1,0.3,0.1c0.6,0.3,1.3,0.6,2,0.9   c0.1,0,0.2,0.1,0.4,0.1c0.7,0.2,1.4,0.4,2.1,0.5c0.1,0,0.2,0,0.3,0c0.4,0,0.7,0.1,1.1,0.1c0.2,0,0.4,0,0.5,0s0.4,0,0.5,0   c0.2,0,0.4,0,0.6,0c0.4,0,0.7-0.1,1.1-0.1c0.4-0.1,0.7-0.1,1.1-0.2c0.1,0,0.2-0.1,0.4-0.1c0.7-0.2,1.4-0.4,2.1-0.8   C56.4,61.9,56.6,61.9,56.7,61.8z M55.9,57.5c-0.4,0.3-0.8,0.5-1.3,0.7c-0.1,0.1-0.2,0.1-0.3,0.1c-0.4,0.2-0.9,0.3-1.4,0.5   c-0.1,0-0.3,0.1-0.4,0.1c-0.2,0-0.4,0.1-0.7,0.1c-0.3,0-0.6,0.1-0.8,0.1c-0.1,0-0.2,0-0.3,0c-0.1,0-0.2,0-0.3,0c-0.2,0-0.4,0-0.5,0   c-0.2,0-0.4,0-0.6-0.1c-0.2,0-0.3,0-0.5-0.1c-0.4-0.1-0.8-0.2-1.2-0.3c-0.1,0-0.3-0.1-0.4-0.1c-0.4-0.1-0.8-0.3-1.2-0.5   c-0.1-0.1-0.3-0.2-0.4-0.2c-0.2-0.1-0.4-0.2-0.5-0.3c-0.2-0.1-0.4-0.3-0.6-0.5c-0.1-0.1-0.2-0.1-0.2-0.2c-0.2-0.2-0.4-0.3-0.6-0.5   c-0.1-0.1-0.3-0.3-0.4-0.4c-0.1-0.1-0.2-0.3-0.3-0.4c-0.3-0.3-0.5-0.6-0.7-1c-0.1-0.1-0.2-0.3-0.2-0.4c-0.2-0.4-0.4-0.8-0.5-1.2   c-0.1-0.1-0.1-0.3-0.2-0.4c-0.1-0.2-0.1-0.4-0.2-0.6c-0.1-0.3-0.1-0.5-0.2-0.8c0-0.1,0-0.2,0-0.3c0-0.3-0.1-0.5-0.1-0.8   c0-0.2,0-0.4,0-0.5c0,0,0,0,0-0.1c0-0.2,0-0.3,0-0.5c0-0.4,0.1-0.9,0.2-1.3c0-0.1,0.1-0.3,0.1-0.4c0.1-0.5,0.3-0.9,0.4-1.4   c0.1-0.1,0.1-0.2,0.2-0.4c0.1-0.2,0.2-0.4,0.3-0.6c0.1-0.3,0.3-0.5,0.5-0.8c0,0,0.1-0.1,0.1-0.1c0.2-0.3,0.4-0.5,0.6-0.7   c0.2-0.2,0.3-0.4,0.5-0.5c0.1-0.1,0.2-0.2,0.3-0.3c0.4-0.4,0.8-0.7,1.2-1c0.1,0,0.1-0.1,0.2-0.1c0.5-0.3,1-0.6,1.5-0.8   c0.1,0,0.2-0.1,0.3-0.1c0.3-0.1,0.5-0.2,0.8-0.3c0.3-0.1,0.7-0.2,1-0.2c0,0,0,0,0.1,0c0.3-0.1,0.7-0.1,1-0.1c0.2,0,0.4,0,0.5,0   c0.1,0,0.2,0,0.3,0c0.1,0,0.2,0,0.3,0c0.6,0,1.2,0.1,1.7,0.3c0.1,0,0.1,0,0.2,0c0.6,0.2,1.2,0.4,1.7,0.6c0.1,0,0.1,0.1,0.2,0.1   c0.3,0.1,0.5,0.3,0.8,0.4c0.3,0.2,0.6,0.4,0.9,0.6c0,0,0,0,0,0c0.3,0.2,0.6,0.5,0.8,0.7c0.2,0.2,0.4,0.4,0.6,0.6   c0.1,0.1,0.1,0.1,0.2,0.2c0.4,0.5,0.7,1,1,1.5c0,0,0.1,0.1,0.1,0.1c0.3,0.5,0.5,1.1,0.7,1.7c0,0.1,0,0.1,0.1,0.2   c0.1,0.3,0.1,0.6,0.2,0.9c0.1,0.4,0.1,0.7,0.1,1.1c0,0,0,0,0,0c0,0.2,0,0.3,0,0.5c0,0.2,0,0.4,0,0.5c0,0.3,0,0.5-0.1,0.8   c0,0.1,0,0.2,0,0.3c-0.1,0.6-0.2,1.1-0.4,1.6c0,0.1-0.1,0.1-0.1,0.2c-0.2,0.5-0.4,1-0.7,1.5c-0.1,0.1-0.1,0.2-0.2,0.3   c-0.1,0.2-0.3,0.4-0.5,0.6c-0.2,0.3-0.4,0.5-0.6,0.7c0,0-0.1,0.1-0.1,0.1c-0.2,0.2-0.5,0.4-0.7,0.7c-0.2,0.1-0.4,0.3-0.5,0.4   C56.2,57.3,56,57.4,55.9,57.5z"/><path d="M56.3,74c-0.4,0.1-0.7,0.2-1.1,0.2c-0.4,0.1-0.7,0.1-1.1,0.2L57,88c0.1,0.5,0.6,0.9,1.1,0.9c0.1,0,0.2,0,0.2,0   c0.3-0.1,0.5-0.2,0.7-0.5c0.2-0.2,0.2-0.5,0.1-0.8L56.3,74z"/><path d="M58,13.8c0.1-0.3,0-0.6-0.2-0.8c-0.2-0.2-0.4-0.4-0.7-0.5c-0.6-0.1-1.2,0.3-1.3,0.9l-2.1,11c0.7,0.1,1.5,0.2,2.2,0.4   L58,13.8z"/><path d="M56.5,48.6c0-0.1,0-0.1,0-0.2c-0.1-0.3-0.1-0.6-0.2-0.9c0-0.1-0.1-0.3-0.1-0.4c-0.1-0.3-0.2-0.5-0.4-0.8   c-0.1-0.1-0.1-0.2-0.2-0.3c-0.2-0.3-0.4-0.5-0.6-0.7c0,0-0.1-0.1-0.1-0.1c-0.1-0.1-0.2-0.2-0.2-0.2c-0.2-0.2-0.4-0.3-0.6-0.5   c-0.1-0.1-0.2-0.1-0.3-0.2c-0.1,0-0.1-0.1-0.2-0.1c-0.3-0.1-0.5-0.3-0.8-0.4c-0.1,0-0.2-0.1-0.4-0.1c-0.3-0.1-0.6-0.1-0.9-0.2   c-0.1,0-0.2,0-0.3,0c-0.2,0-0.4,0-0.5,0c-0.1,0-0.3,0-0.4,0c0,0-0.1,0-0.1,0c-0.1,0-0.2,0-0.3,0c-0.3,0-0.6,0.1-0.8,0.2   c-0.1,0-0.2,0.1-0.2,0.1c0,0-0.1,0-0.1,0c-0.3,0.1-0.6,0.2-0.9,0.4c-0.1,0-0.1,0.1-0.2,0.1c-0.3,0.2-0.6,0.4-0.8,0.6   c0,0-0.1,0.1-0.1,0.1c-0.3,0.2-0.5,0.5-0.7,0.8c0,0,0,0,0,0c0,0-0.1,0.1-0.1,0.1c-0.2,0.3-0.4,0.5-0.5,0.8c0,0,0,0.1-0.1,0.1   c0,0,0,0,0,0c-0.2,0.3-0.3,0.7-0.4,1c0,0,0,0,0,0c-0.1,0.3-0.1,0.7-0.2,1c0,0,0,0.1,0,0.1c0,0.2,0,0.3,0,0.5c0,0.2,0,0.4,0,0.5   c0,0,0,0,0,0c0,0,0,0,0,0c0,0.3,0.1,0.7,0.2,1c0,0,0,0,0,0.1c0,0,0,0,0,0c0.1,0.3,0.2,0.6,0.3,0.9c0,0.1,0,0.1,0.1,0.1   c0.1,0.2,0.3,0.5,0.4,0.7c0,0.1,0.1,0.1,0.1,0.2c0.2,0.2,0.4,0.5,0.6,0.7c0,0,0,0,0,0c0,0,0.1,0.1,0.1,0.1c0.2,0.2,0.4,0.4,0.7,0.6   c0,0,0,0,0.1,0.1c0,0,0,0,0,0c0.3,0.2,0.5,0.3,0.8,0.5c0,0,0.1,0,0.1,0.1c0.3,0.1,0.5,0.2,0.8,0.3c0.1,0,0.1,0,0.2,0   c0.3,0.1,0.6,0.1,0.9,0.2c0,0,0,0,0,0c0,0,0,0,0,0c0.2,0,0.3,0,0.5,0c0.2,0,0.4,0,0.5,0c0,0,0,0,0,0c0,0,0,0,0,0   c0.4,0,0.7-0.1,1.1-0.2c0,0,0,0,0,0c0.4-0.1,0.7-0.2,1-0.4c0,0,0,0,0,0c0.3-0.2,0.6-0.4,0.9-0.6c0,0,0,0,0,0c0,0,0.1-0.1,0.1-0.1   c0.2-0.2,0.5-0.4,0.7-0.6c0,0,0.1-0.1,0.1-0.1c0,0,0,0,0.1-0.1c0.2-0.3,0.4-0.5,0.6-0.8c0-0.1,0.1-0.1,0.1-0.2   c0.1-0.3,0.3-0.6,0.4-0.9c0-0.1,0.1-0.2,0.1-0.2c0.1-0.3,0.2-0.6,0.2-1c0,0,0-0.1,0-0.1c0-0.1,0-0.2,0-0.3c0-0.1,0-0.2,0-0.3   c0-0.2,0-0.4,0-0.5C56.5,48.8,56.5,48.7,56.5,48.6z M52.8,49.9C52.8,50,52.7,50,52.8,49.9C52.7,50,52.7,50,52.8,49.9   c-0.1,0.2-0.1,0.3-0.1,0.5c0,0.1-0.1,0.1-0.1,0.2c0,0.1-0.1,0.2-0.1,0.2c-0.1,0.1-0.2,0.2-0.3,0.3c0,0,0,0,0,0   c-0.1,0-0.1,0.1-0.2,0.1c-0.1,0-0.1,0.1-0.2,0.1c0,0-0.1,0-0.1,0.1c0,0-0.1,0.1-0.1,0.1c0,0,0,0-0.1,0c-0.1,0-0.2,0.1-0.3,0.1   c0,0,0,0,0,0c-0.1,0-0.2,0-0.3,0.1c-0.1,0-0.1,0-0.2,0c0,0-0.1,0-0.1,0c0,0,0,0-0.1,0c0,0-0.1,0-0.1,0c-0.1,0-0.1,0-0.2,0   c0,0-0.1,0-0.1,0c0,0-0.1,0-0.1,0c0,0-0.1,0-0.1,0c-0.1,0-0.1,0-0.2-0.1c0,0,0,0-0.1,0c-0.1,0-0.2-0.1-0.2-0.1c0,0,0,0,0,0   c-0.1,0-0.1-0.1-0.2-0.1c0,0,0,0,0,0c0,0,0,0,0,0c-0.1,0-0.1-0.1-0.1-0.1c0,0,0,0,0,0c0,0,0,0,0-0.1c0,0-0.1-0.1-0.1-0.1   c0,0,0-0.1-0.1-0.1c0-0.1-0.1-0.1-0.1-0.2c0,0,0,0,0,0c0-0.1-0.1-0.2-0.1-0.2c0,0,0,0,0,0c0,0,0,0,0,0c0-0.1-0.1-0.1-0.1-0.2   c0,0,0-0.1,0-0.1c0,0,0-0.1,0-0.1c0,0,0,0,0-0.1c0-0.1,0-0.2,0-0.3c0,0,0-0.1,0-0.1c0,0,0,0,0,0c0-0.1,0-0.1,0-0.2   c0-0.1,0-0.2,0.1-0.3c0,0,0,0,0,0c0,0,0,0,0,0c0-0.1,0.1-0.2,0.1-0.3c0,0,0-0.1,0-0.1c0,0,0-0.1,0-0.1c0-0.1,0.1-0.1,0.1-0.1   c0.1-0.1,0.1-0.2,0.2-0.3c0,0,0,0,0-0.1c0.1-0.1,0.2-0.2,0.3-0.3c0.1,0,0.1-0.1,0.2-0.1c0,0,0.1,0,0.1-0.1c0,0,0.1,0,0.1-0.1   c0.1-0.1,0.2-0.1,0.3-0.1c0,0,0.1,0,0.1,0c0,0,0,0,0,0c0.2,0,0.3-0.1,0.5-0.1c0,0,0,0,0,0c0,0,0,0,0,0c0.2,0,0.4,0,0.5,0.1   c0,0,0.1,0,0.1,0c0.1,0,0.3,0.1,0.4,0.2c0,0,0,0,0,0c0,0,0,0,0.1,0c0.1,0.1,0.3,0.2,0.4,0.3c0,0,0.1,0,0.1,0.1c0,0,0,0,0,0   c0.1,0.1,0.2,0.2,0.3,0.3c0,0,0,0.1,0.1,0.1c0.1,0.2,0.2,0.3,0.2,0.5c0,0,0,0.1,0,0.1c0,0.2,0.1,0.3,0.1,0.5c0,0,0,0,0,0   c0,0,0,0,0,0c0,0,0,0,0,0C52.8,49.6,52.8,49.8,52.8,49.9z"/><path d="M50,74.6c-0.4,0-0.7,0-1.1,0v19.5c0,0.6,0.5,1.1,1.1,1.1c0.6,0,1.1-0.5,1.1-1.1V74.6c-0.2,0-0.4,0-0.5,0S50.2,74.7,50,74.6   z"/><path d="M50.5,24.2c0.2,0,0.4,0,0.5,0V5.9c0-0.6-0.5-1.1-1.1-1.1c-0.6,0-1.1,0.5-1.1,1.1v18.4c0.4,0,0.7,0,1.1,0   C50.2,24.3,50.4,24.2,50.5,24.2z"/><path d="M42,86.2c-0.1,0.3,0,0.6,0.2,0.8c0.2,0.2,0.4,0.4,0.7,0.5c0.1,0,0.1,0,0.2,0c0.5,0,1-0.4,1.1-0.9l2.3-12.3   c-0.7-0.1-1.4-0.3-2.1-0.4L42,86.2z"/><path d="M43.6,25.2c0.4-0.1,0.7-0.2,1.1-0.3c0.4-0.1,0.7-0.2,1.1-0.2L43,12c-0.1-0.5-0.6-0.9-1.1-0.9c-0.1,0-0.2,0-0.2,0   c-0.3,0.1-0.5,0.2-0.7,0.5c-0.2,0.2-0.2,0.5-0.1,0.8L43.6,25.2z"/><path d="M32.5,90.5c-0.2,0.6,0,1.2,0.6,1.4c0.1,0.1,0.3,0.1,0.4,0.1c0.5,0,0.9-0.3,1-0.7l7.3-18.2c-0.7-0.3-1.4-0.5-2-0.8   L32.5,90.5z"/><path d="M39,27c0.7-0.3,1.3-0.6,2-0.9L33.7,9c-0.2-0.4-0.6-0.7-1-0.7c-0.1,0-0.3,0-0.4,0.1C32,8.5,31.8,8.8,31.7,9   c-0.1,0.3-0.1,0.6,0,0.8L39,27z"/><path d="M36.7,70.5c-0.3-0.2-0.6-0.4-0.9-0.6l-7.7,11.9c-0.3,0.5-0.2,1.2,0.3,1.5c0.2,0.1,0.4,0.2,0.6,0.2c0.4,0,0.7-0.2,0.9-0.5   l7.7-11.9C37.3,70.9,37,70.7,36.7,70.5z"/><path d="M34.9,29.7c0.6-0.5,1.2-0.9,1.8-1.3L30,18.8c-0.2-0.3-0.5-0.5-0.9-0.5c-0.2,0-0.4,0.1-0.6,0.2c-0.5,0.3-0.6,1-0.3,1.5   L34.9,29.7z"/><path d="M32.7,67.3c-0.3-0.3-0.5-0.5-0.8-0.8L18,80.4c-0.4,0.4-0.4,1.1,0,1.5c0.2,0.2,0.5,0.3,0.8,0.3s0.6-0.1,0.8-0.3L33.5,68   C33.2,67.8,33,67.5,32.7,67.3z"/><path d="M31.5,33c0.2-0.3,0.5-0.6,0.7-0.8c0,0,0,0,0,0c0.2-0.3,0.5-0.5,0.8-0.8L19.6,18.1c-0.4-0.4-1.1-0.4-1.6,0   c-0.4,0.4-0.4,1.1,0,1.5L31.5,33z"/><path d="M18.3,70.7c-0.1,0.3,0,0.6,0.2,0.8c0.2,0.3,0.5,0.5,0.9,0.5c0.2,0,0.4-0.1,0.6-0.2l10.4-7.1c-0.4-0.6-0.9-1.2-1.2-1.8   L18.8,70C18.5,70.1,18.4,70.4,18.3,70.7z M19.4,70.9v0.5V70.9C19.4,70.9,19.4,70.9,19.4,70.9z"/><path d="M17,30l11.4,7.4c0.2-0.3,0.4-0.6,0.5-0.9c0.2-0.3,0.4-0.6,0.6-0.9l-11.4-7.4c-0.2-0.1-0.4-0.2-0.6-0.2   c-0.4,0-0.7,0.2-0.9,0.5C16.3,29,16.5,29.6,17,30z"/><path d="M27.1,58.6L9,66.3c-0.3,0.1-0.5,0.3-0.6,0.6c-0.1,0.3-0.1,0.6,0,0.8c0.2,0.4,0.6,0.7,1,0.7c0.1,0,0.3,0,0.4-0.1l18.1-7.7   C27.6,59.9,27.3,59.3,27.1,58.6z"/><path d="M8.7,34.6l17.9,7.2c0.2-0.7,0.5-1.4,0.8-2.1L9.5,32.5c-0.1-0.1-0.3-0.1-0.4-0.1c-0.4,0-0.9,0.3-1,0.7   C7.9,33.7,8.1,34.3,8.7,34.6z"/><path d="M11.3,57.5c-0.2,0.2-0.2,0.5-0.2,0.8c0.1,0.5,0.6,0.9,1.1,0.9c0.1,0,0.2,0,0.2,0l13.8-3c-0.1-0.4-0.2-0.7-0.3-1.1   c-0.1-0.4-0.2-0.7-0.2-1.1L12,57C11.7,57.1,11.5,57.3,11.3,57.5z"/><path d="M13.8,42c-0.6-0.1-1.2,0.3-1.3,0.9c-0.1,0.3,0,0.6,0.2,0.8c0.2,0.2,0.4,0.4,0.7,0.5l12.1,2.3c0.1-0.7,0.2-1.5,0.3-2.2   L13.8,42z"/><path d="M25.4,50c0-0.2,0-0.4,0-0.5c0-0.2,0-0.4,0-0.5H5.9c-0.6,0-1.1,0.5-1.1,1.1c0,0.6,0.5,1.1,1.1,1.1h19.5   C25.4,50.7,25.4,50.4,25.4,50z"/></g><text x="0" y="115" fill="#000000" font-size="5px" font-weight="bold" font-family="'Helvetica Neue', Helvetica, Arial-Unicode, Arial, Sans-serif">Created by Design GigaSavvy</text><text x="0" y="120" fill="#000000" font-size="5px" font-weight="bold" font-family="'Helvetica Neue', Helvetica, Arial-Unicode, Arial, Sans-serif">from the Noun Project</text></svg>