<?xml version="1.0" encoding="utf-8"?>
<!-- Generator: Adobe Illustrator 15.1.0, SVG Export Plug-In  -->
<!DOCTYPE svg PUBLIC "-//W3C//DTD SVG 1.1//EN" "http://www.w3.org/Graphics/SVG/1.1/DTD/svg11.dtd" [
	<!ENTITY ns_flows "http://ns.adobe.com/Flows/1.0/">
]>
<svg version="1.1"
	 xmlns="http://www.w3.org/2000/svg" xmlns:xlink="http://www.w3.org/1999/xlink" xmlns:a="http://ns.adobe.com/AdobeSVGViewerExtensions/3.0/"
	 x="0px" y="0px" width="800px" height="600px" viewBox="-184.002 -77.995 800 600"
	 overflow="visible" enable-background="new -184.002 -77.995 800 600" xml:space="preserve">
<defs>
</defs>
<path d="M181.106,304.469c-9.413,0-17.294,7.872-17.294,17.28s7.881,17.28,17.294,17.28c9.413,0,17.294-7.872,17.294-17.28
	S190.519,304.469,181.106,304.469z"/>
<path d="M250.889,304.469c-9.418,0-17.295,7.872-17.295,17.28s7.882,17.28,17.295,17.28c9.412,0,17.294-7.872,17.294-17.28
	C268.183,312.346,260.301,304.469,250.889,304.469z"/>
<path d="M154.994,185.755c-2.453-7.075-12.902-10.93-19.646-11.549c-8.65-0.797-17.117,2.434-23.237,8.554
	c-5.688,5.678-8.741,13.574-8.372,21.6c0.327,7.108,4.138,18.374,11.655,20.967l43.742,15.129c0.926,0.322,1.882,0.475,2.827,0.475
	c0.029,0.006,0.067,0.006,0.086,0c6.341,0,10.599-6.911,7.704-12.57L154.994,185.755z M123.208,209.741
	c-7.574-10.257,6.02-23.678,16.186-16.176l8.573,24.739L123.208,209.741z"/>
<path d="M299.326,174.086c-7.479,0-19.584,3.72-22.33,11.674l-15.139,43.704c-2.313,6.662,4.296,13.315,11.001,10.992l43.743-15.129
	c5.103-1.758,8.602-8.405,10.199-13.187c1.969-5.88,1.974-12.394-0.019-18.269C322.836,182.256,311.614,174.086,299.326,174.086z
	 M308.782,209.746l-24.759,8.559l8.568-24.734C302.762,186.082,316.375,199.45,308.782,209.746z"/>
<path d="M417.842,260.515l-59.602-110.976l14.789-4.459c4.555-1.411,7.243-6.499,5.678-11.045l-5.51-16.152l15.677,17.275
	c2.424,2.673,6.494,3.528,9.787,2.122c29.774-9.61,43.982-49.421,20.524-72.854l-52.617-52.575
	c-23.731-23.717-64.128-8.885-73.286,21.37l-0.456,1.507C273.276,13.133,245.239,0,215.978,0c-29.414,0-57.581,13.282-77.131,35.088
	l-0.562-1.862c-9.149-30.297-49.512-45.125-73.277-21.37L12.42,64.406c-23.741,23.717-8.923,64.08,21.389,73.219l39.854,12.02
	l-59.51,110.87c-19.555,36.457-18.812,81.879,2.021,117.634c18.802,32.271,53.093,53.861,90.826,53.861h218.006
	c37.729,0,72.024-21.591,90.826-53.856C436.654,342.394,437.402,296.972,417.842,260.515z M309.842,38.218
	c5.438-17.976,29.89-28.743,44.501-14.15l52.622,52.574c13.018,13.008,5.794,34.719-9.341,42.422L358.01,75.408
	c-0.015-0.015-0.028-0.029-0.043-0.048l-0.029-0.029c-6.153-6.782-17.534-0.062-14.592,8.592l16.095,47.198l-42.005,12.663
	c-19.061,5.765-36.038-11.309-30.293-30.322L309.842,38.218z M18.669,100.022c-2.227-8.846-0.048-17.376,5.976-23.395l52.589-52.546
	c14.625-14.611,39.048-3.878,44.496,14.146l22.733,75.264c5.745,19.022-11.29,36.039-30.336,30.312l-25.243-7.613
	c-0.091-0.029-0.182-0.058-0.278-0.082l-49.81-15.019C28.903,118.095,21.189,110.026,18.669,100.022
	C16.447,91.171,21.189,110.026,18.669,100.022z M161.738,367.512h108.513c-3.725,26.684-27.287,47.208-54.254,47.208
	C189.031,414.725,165.468,394.195,161.738,367.512z M128.757,350.237c3.869-39.279,34.939-72.024,73.997-77.962
	c39.394-5.991,78.85,16.238,94.19,52.968c3.326,7.959,5.453,16.411,6.298,24.994H128.757z M400.255,370.507
	c-16.829,28.104-44.261,44.218-75.255,44.218H262.74c13.699-11.683,23.007-28.358,24.989-47.208h41.851
	c11.15,0,11.15-17.279,0-17.279h-8.995c-3.201-39-28.886-73.801-65.141-88.556c-36.955-15.038-80.328-7.267-109.857,19.483
	c-19.608,17.765-32.016,42.696-34.181,69.067h-8.996c-11.15,0-11.15,17.279,0,17.279h41.852c1.982,18.85,11.29,35.525,24.989,47.208
	h-62.256c-31.939,0-60.158-18.163-75.989-45.46c-17.746-30.601-18.331-69.423-1.613-100.579l61.162-113.943l18.576,5.602
	c14.534,4.387,30.672,1.138,41.616-9.595c11.188-10.968,14.765-27.398,10.276-42.254l-16.108-53.323
	c16.257-23.141,42.355-37.805,70.843-37.882c28.498,0,54.614,14.372,71.04,37.45l-16.214,53.741c-4.311,14.266-1.301,30,9,40.973
	c10.958,11.683,27.657,15.475,42.859,10.881l18.902-5.698l61.252,114.053C419.695,300.538,418.792,339.557,400.255,370.507
	C383.421,398.606,418.792,339.557,400.255,370.507z"/>
</svg>
