<?xml version="1.0" encoding="utf-8"?>
<!-- Generator: Adobe Illustrator 15.1.0, SVG Export Plug-In  -->
<!DOCTYPE svg PUBLIC "-//W3C//DTD SVG 1.1//EN" "http://www.w3.org/Graphics/SVG/1.1/DTD/svg11.dtd" [
	<!ENTITY ns_flows "http://ns.adobe.com/Flows/1.0/">
]>
<svg version="1.1"
	 xmlns="http://www.w3.org/2000/svg" xmlns:xlink="http://www.w3.org/1999/xlink" xmlns:a="http://ns.adobe.com/AdobeSVGViewerExtensions/3.0/"
	 x="0px" y="0px" width="800px" height="600px" viewBox="-188.507 -123.261 800 600"
	 overflow="visible" enable-background="new -188.507 -123.261 800 600" xml:space="preserve">
<defs>
</defs>
<circle cx="213.009" cy="16.013" r="16.013"/>
<polygon points="125.784,112.296 209.299,112.296 209.299,119.789 213.706,119.789 213.706,112.296 298.934,112.296 
	298.934,119.789 303.34,119.789 303.34,107.89 213.706,107.89 213.706,96.331 209.299,96.331 209.299,107.89 121.382,107.89 
	121.382,119.789 125.784,119.789 "/>
<polygon points="303.571,235.732 303.571,224.17 299.165,224.17 299.165,235.732 213.706,235.732 213.706,224.17 209.299,224.17 
	209.299,235.732 126.014,235.732 126.014,224.17 121.608,224.17 121.608,235.732 33.897,235.732 33.897,247.627 38.304,247.627 
	38.304,240.135 121.608,240.135 121.608,247.627 126.014,247.627 126.014,240.135 209.299,240.135 209.299,247.627 213.706,247.627 
	213.706,240.135 299.165,240.135 299.165,247.627 303.571,247.627 303.571,240.135 385.565,240.135 385.565,247.627 
	389.971,247.627 389.971,235.732 "/>
<circle cx="213.009" cy="141.202" r="16.013"/>
<path d="M186.394,217.056l0.912-13.78l3.321,0.087l-0.23,13.693h43.094l-0.354-13.857h3.422l1.44,13.857h10.229l-5.736-45.94
	c-0.6-4.8-4.68-8.405-9.518-8.41l-42.327-0.043c-4.968-0.005-9.12,3.782-9.571,8.726l-4.167,45.673h9.485V217.056z"/>
<circle cx="123.811" cy="141.202" r="16.013"/>
<path d="M97.195,217.056l0.912-13.78l3.322,0.087l-0.23,13.693h43.094l-0.355-13.857h3.422l1.44,13.857h10.229l-5.736-45.94
	c-0.6-4.8-4.68-8.405-9.518-8.41l-42.327-0.043c-4.968-0.005-9.12,3.782-9.571,8.726l-4.166,45.673h9.484V217.056z"/>
<circle cx="301.368" cy="141.202" r="16.013"/>
<path d="M274.751,217.056l0.912-13.78l3.322,0.087l-0.23,13.693h43.094l-0.354-13.857h3.422l1.44,13.857h10.229l-5.736-45.94
	c-0.6-4.8-4.68-8.405-9.519-8.41l-42.326-0.043c-4.968-0.005-9.12,3.782-9.571,8.726l-4.166,45.673h9.484V217.056z"/>
<circle cx="213.009" cy="270.777" r="16.013"/>
<path d="M186.394,346.632l0.912-13.78l3.321,0.086l-0.23,13.694h43.094l-0.354-13.857h3.422l1.44,13.857h10.229l-5.736-45.94
	c-0.6-4.8-4.68-8.405-9.518-8.41l-42.327-0.043c-4.968-0.005-9.12,3.782-9.571,8.727l-4.167,45.672h9.485V346.632z"/>
<circle cx="123.811" cy="270.777" r="16.013"/>
<path d="M97.195,346.632l0.912-13.78l3.322,0.086l-0.23,13.694h43.094l-0.355-13.857h3.422l1.44,13.857h10.229l-5.736-45.94
	c-0.6-4.8-4.68-8.405-9.518-8.41l-42.327-0.043c-4.968-0.005-9.12,3.782-9.571,8.727l-4.166,45.672h9.484V346.632z"/>
<circle cx="301.368" cy="270.777" r="16.013"/>
<path d="M274.751,346.632l0.912-13.78l3.322,0.086l-0.23,13.694h43.094l-0.354-13.857h3.422l1.44,13.857h10.229l-5.736-45.94
	c-0.6-4.8-4.68-8.405-9.519-8.41l-42.326-0.043c-4.968-0.005-9.12,3.782-9.571,8.727l-4.166,45.672h9.484V346.632z"/>
<circle cx="36.101" cy="270.777" r="16.013"/>
<path d="M9.485,346.632l0.912-13.78l3.322,0.086l-0.23,13.694h43.094l-0.355-13.857h3.422l1.44,13.857h10.229l-5.736-45.94
	c-0.6-4.8-4.68-8.405-9.519-8.41l-42.327-0.043c-4.968-0.005-9.12,3.782-9.571,8.727L0,346.637h9.485V346.632z"/>
<circle cx="387.768" cy="270.777" r="16.013"/>
<path d="M361.152,346.632l0.912-13.78l3.321,0.086l-0.23,13.694h43.095l-0.355-13.857h3.423l1.439,13.857h10.229l-5.736-45.94
	c-0.6-4.8-4.68-8.405-9.519-8.41l-42.326-0.043c-4.968-0.005-9.12,3.782-9.571,8.727l-4.166,45.672h9.484V346.632z"/>
<path d="M242.486,45.926c-0.6-4.8-4.68-8.405-9.518-8.41l-42.327-0.043c-4.968-0.005-9.12,3.782-9.571,8.727l-4.171,45.672h9.485
	l0.912-13.781l3.322,0.086l-0.23,13.694h43.095l-0.355-13.857h3.422l1.44,13.857h10.229L242.486,45.926z M212.884,89.419
	l-6.47-9.355l4.042-32.861c-0.461-0.25-0.777-0.734-0.777-1.296v-3.581c0-0.816,0.662-1.479,1.479-1.479h3.581
	c0.815,0,1.479,0.662,1.479,1.479v3.581c0,0.614-0.375,1.143-0.907,1.363l4.296,32.793L212.884,89.419z"/>
</svg>
