<svg xmlns="http://www.w3.org/2000/svg" xmlns:xlink="http://www.w3.org/1999/xlink" version="1.1" id="Layer_3" x="0px" y="0px" viewBox="5.0 -10.0 100.0 135.0" enable-background="new 0 0 100 100" xml:space="preserve" height="100px" width="100px">
<polygon points="64.7,53.8 61.6,56.7 63.2,58.4 66.3,55.5 71.5,61.1 68.3,64.1 69.9,65.8 73.1,62.8 76.6,66.5 63.4,78.8 47,61.2   60.1,48.9 "/>
<rect x="46.5" y="39.1" transform="matrix(-0.7305 0.6829 -0.6829 -0.7305 111.7262 36.395)" width="4.4" height="2.4"/>
<rect x="40.5" y="32.3" transform="matrix(-0.7304 0.683 -0.683 -0.7304 96.8099 28.8069)" width="4.4" height="2.4"/>
<path d="M76.2,75.8l9.6-9L39.3,17.1l-10.4,9.7l0,0l-4.2-4.5l9.1-8.5l-5.9-6.3L8.2,25.9l5.9,6.3l7.5-7l4.2,4.5l0,0l-9.3,8.7  l46.5,49.7l9.8-9.1l9.6,10.2l9.5,3.2L76.2,75.8z M63.1,82.8L21.8,38.6l6.5-6.1l0,0l18.8,20.1l-4.4,4.1l2.5,2.7l13.2-12.3l-2.5-2.7  l-7,6.6l1.4-1.3L31.5,29.5l0,0l7.6-7.1l41.3,44.2L63.1,82.8z"/>
</svg>