<?xml version="1.0" encoding="utf-8"?>
<!-- Generator: Adobe Illustrator 15.1.0, SVG Export Plug-In . SVG Version: 6.00 Build 0)  -->
<!DOCTYPE svg PUBLIC "-//W3C//DTD SVG 1.1//EN" "http://www.w3.org/Graphics/SVG/1.1/DTD/svg11.dtd">
<svg version="1.1" id="Calque_1" xmlns="http://www.w3.org/2000/svg" xmlns:xlink="http://www.w3.org/1999/xlink" x="0px" y="0px"
	 width="800px" height="600px" viewBox="0 0 800 600" enable-background="new 0 0 800 600" xml:space="preserve">
<path d="M520.967,297.896c-30.222-8.704-46.934-50.499-47.89-52.421c0.001-0.479,0.001-0.479-0.478-0.961l-9.524-36.02
	c0.001-0.479-0.477-1.44-0.476-1.921l0.127-60c-10.08-0.021-18.247,3.322-24.498,8.588c-13.947,12.931-15.438,36.927-15.458,46.047
	l4.655,68.65c-0.005,1.921-0.488,3.84-1.932,5.277c-1.443,1.437-3.365,2.393-5.285,2.388l-118.56-0.25
	c-9.12-0.02-16.816,7.645-16.835,16.764c-0.02,9.12,7.644,16.816,16.764,16.836l12.479,0.026c3.841,0.008,7.193,3.375,7.185,7.215
	c-0.008,3.84-3.375,7.193-7.215,7.185l-12-0.025c-9.119-0.02-16.816,7.645-16.835,16.765c-0.02,9.12,7.645,16.816,16.764,16.836l0,0
	l12,0.025c3.841,0.008,7.193,3.375,7.185,7.215c-0.008,3.84-3.375,7.192-7.215,7.185l-12-0.025
	c-9.119-0.02-16.816,7.645-16.835,16.765c-0.008,3.84,0.924,16.802,12.924,16.827l15.839,0.034l0,0
	c3.841,0.008,7.193,3.375,7.185,7.215c-0.008,3.84-3.375,7.192-7.215,7.185l0,0l-12-0.025c-9.119-0.02-16.816,7.645-16.835,16.765
	c-0.019,9.12,7.646,16.816,16.765,16.835l80.16,0.17c60,0.127,85.462-9.899,104.196-17.06c12.011-4.774,22.099-8.593,36.498-8.562
	c3.841,0.008,7.193,3.375,7.186,7.215c-0.008,3.841-3.375,7.193-7.216,7.185c-11.52-0.024-19.687,3.318-31.216,7.614
	c-19.696,7.639-46.599,18.142-109.479,18.009l-80.16-0.17c-17.279-0.037-31.169-13.986-31.133-31.267
	c0.019-9.119,3.876-17.271,10.128-23.018c-6.229-5.294-10.05-13.942-10.027-24.982c0.02-9.6,4.357-18.23,11.091-23.977
	c-6.709-5.773-11.49-14.424-11.47-24.023c0.02-9.6,4.358-18.231,11.091-23.977c-6.708-5.774-11.01-14.424-10.989-24.024
	c0.037-17.279,13.986-31.169,31.266-31.133l111.36,0.235l-4.19-61.449c0.03-14.4,2.487-41.275,19.801-57.079
	c9.139-8.62,21.146-12.436,35.546-12.405c2.4,0.005,4.32,0.009,6.72,0.495c3.84,0.008,6.713,3.375,6.704,7.214l-0.14,66.24
	l9.047,34.579c1.432,3.843,16.242,36.994,38.308,43.761c3.838,0.969,6.229,5.293,4.78,9.13
	C528.649,296.472,524.804,298.864,520.967,297.896z"/>
</svg>
